<mxfile host="Electron" modified="2024-01-29T14:23:48.146Z" agent="Mozilla/5.0 (Windows NT 10.0; Win64; x64) AppleWebKit/537.36 (KHTML, like Gecko) draw.io/22.0.3 Chrome/114.0.5735.289 Electron/25.8.4 Safari/537.36" etag="yxkLzgP5z39WJyOaAsE4" version="22.0.3" type="device">
  <diagram id="Ia3cG-8sxqVeyKSTiYs8" name="第 1 页">
    <mxGraphModel dx="2074" dy="1196" grid="1" gridSize="5" guides="1" tooltips="1" connect="1" arrows="1" fold="1" page="1" pageScale="1" pageWidth="827" pageHeight="1169" math="0" shadow="0">
      <root>
        <mxCell id="0" />
        <mxCell id="1" parent="0" />
        <mxCell id="dQi3K2ikhl7FJS8-el9H-121" value="" style="rounded=0;whiteSpace=wrap;html=1;arcSize=6;fillColor=#ffe6cc;strokeColor=#d79b00;container=0;fontStyle=1;fontFamily=Times New Roman;" parent="1" vertex="1">
          <mxGeometry x="313.65999999999997" y="835" width="100" height="263.66" as="geometry" />
        </mxCell>
        <mxCell id="dQi3K2ikhl7FJS8-el9H-122" value="Prev Hash" style="rounded=0;whiteSpace=wrap;html=1;fontSize=16;container=0;fontStyle=1;fontFamily=Times New Roman;" parent="1" vertex="1">
          <mxGeometry x="318.99" y="909.65" width="89.67" height="41.44" as="geometry" />
        </mxCell>
        <mxCell id="dQi3K2ikhl7FJS8-el9H-124" value="States Root" style="rounded=0;whiteSpace=wrap;html=1;fontSize=16;container=0;fontStyle=1;fontFamily=Times New Roman;" parent="1" vertex="1">
          <mxGeometry x="319" y="956.9000000000001" width="89.67" height="41.44" as="geometry" />
        </mxCell>
        <mxCell id="dQi3K2ikhl7FJS8-el9H-125" value="Allocation Table Hash" style="rounded=0;whiteSpace=wrap;html=1;fontSize=16;container=0;fontStyle=1;fontFamily=Times New Roman;" parent="1" vertex="1">
          <mxGeometry x="318.99" y="1003.6600000000001" width="89.67" height="41.44" as="geometry" />
        </mxCell>
        <mxCell id="dQi3K2ikhl7FJS8-el9H-126" value="Timestamp" style="rounded=0;whiteSpace=wrap;html=1;fontSize=16;container=0;fontStyle=1;fontFamily=Times New Roman;" parent="1" vertex="1">
          <mxGeometry x="318.99" y="859.92" width="89.67" height="41.44" as="geometry" />
        </mxCell>
        <mxCell id="dQi3K2ikhl7FJS8-el9H-128" value="Signature" style="rounded=0;whiteSpace=wrap;html=1;fontSize=16;container=0;fontStyle=1;fontFamily=Times New Roman;" parent="1" vertex="1">
          <mxGeometry x="318.83" y="1050.5600000000002" width="89.67" height="41.44" as="geometry" />
        </mxCell>
        <mxCell id="dQi3K2ikhl7FJS8-el9H-24" value="" style="rounded=0;whiteSpace=wrap;html=1;arcSize=6;fillColor=#d5e8d4;strokeColor=#82b366;container=0;fontStyle=1;fontFamily=Times New Roman;" parent="1" vertex="1">
          <mxGeometry x="313.66" y="525" width="100" height="270" as="geometry" />
        </mxCell>
        <mxCell id="dQi3K2ikhl7FJS8-el9H-25" value="Prev Hash" style="rounded=0;whiteSpace=wrap;html=1;fontSize=16;container=0;fontStyle=1;fontFamily=Times New Roman;" parent="1" vertex="1">
          <mxGeometry x="318.99" y="601.69" width="89.67" height="41.44" as="geometry" />
        </mxCell>
        <mxCell id="dQi3K2ikhl7FJS8-el9H-27" value="States Root" style="rounded=0;whiteSpace=wrap;html=1;fontSize=16;container=0;fontStyle=1;fontFamily=Times New Roman;" parent="1" vertex="1">
          <mxGeometry x="319" y="650" width="89.66" height="41.44" as="geometry" />
        </mxCell>
        <mxCell id="dQi3K2ikhl7FJS8-el9H-28" value="Local Graph Hash" style="rounded=0;whiteSpace=wrap;html=1;fontSize=16;container=0;fontStyle=1;fontFamily=Times New Roman;" parent="1" vertex="1">
          <mxGeometry x="318.99" y="698.66" width="89.67" height="41.44" as="geometry" />
        </mxCell>
        <mxCell id="dQi3K2ikhl7FJS8-el9H-29" value="Timestamp" style="rounded=0;whiteSpace=wrap;html=1;fontSize=16;container=0;fontStyle=1;fontFamily=Times New Roman;" parent="1" vertex="1">
          <mxGeometry x="318.99" y="551.96" width="89.67" height="41.44" as="geometry" />
        </mxCell>
        <mxCell id="dQi3K2ikhl7FJS8-el9H-47" value="Signature" style="rounded=0;whiteSpace=wrap;html=1;fontSize=16;container=0;fontStyle=1;fontFamily=Times New Roman;" parent="1" vertex="1">
          <mxGeometry x="318.99" y="745.9" width="89.67" height="41.44" as="geometry" />
        </mxCell>
        <mxCell id="dQi3K2ikhl7FJS8-el9H-78" value="" style="endArrow=classic;html=1;rounded=0;entryX=1;entryY=0.5;entryDx=0;entryDy=0;fontStyle=1;fontFamily=Times New Roman;exitX=0;exitY=0.604;exitDx=0;exitDy=0;exitPerimeter=0;" parent="1" source="dQi3K2ikhl7FJS8-el9H-48" target="dQi3K2ikhl7FJS8-el9H-28" edge="1">
          <mxGeometry width="50" height="50" relative="1" as="geometry">
            <mxPoint x="425" y="781.156971992462" as="sourcePoint" />
            <mxPoint x="385" y="694.5701034153044" as="targetPoint" />
          </mxGeometry>
        </mxCell>
        <mxCell id="dQi3K2ikhl7FJS8-el9H-256" value="" style="rounded=0;whiteSpace=wrap;html=1;arcSize=6;fillColor=#f8cecc;strokeColor=#b85450;container=0;fontStyle=1;fontFamily=Times New Roman;" parent="1" vertex="1">
          <mxGeometry x="313.83" y="1157.05" width="100" height="264.85" as="geometry" />
        </mxCell>
        <mxCell id="dQi3K2ikhl7FJS8-el9H-257" value="Prev Hash" style="rounded=0;whiteSpace=wrap;html=1;fontSize=16;container=0;fontStyle=1;fontFamily=Times New Roman;" parent="1" vertex="1">
          <mxGeometry x="319.16" y="1230.1999999999998" width="89.67" height="41.44" as="geometry" />
        </mxCell>
        <mxCell id="dQi3K2ikhl7FJS8-el9H-259" value="States Root" style="rounded=0;whiteSpace=wrap;html=1;fontSize=16;container=0;fontStyle=1;fontFamily=Times New Roman;" parent="1" vertex="1">
          <mxGeometry x="319.17" y="1277.29" width="89.67" height="41.44" as="geometry" />
        </mxCell>
        <mxCell id="dQi3K2ikhl7FJS8-el9H-260" value="Recv States Root" style="rounded=0;whiteSpace=wrap;html=1;fontSize=16;container=0;fontStyle=1;fontFamily=Times New Roman;" parent="1" vertex="1">
          <mxGeometry x="319" y="1326.4499999999998" width="89.67" height="41.44" as="geometry" />
        </mxCell>
        <mxCell id="dQi3K2ikhl7FJS8-el9H-261" value="Timestamp" style="rounded=0;whiteSpace=wrap;html=1;fontSize=16;container=0;fontStyle=1;fontFamily=Times New Roman;" parent="1" vertex="1">
          <mxGeometry x="319.16" y="1180.4699999999998" width="89.67" height="41.44" as="geometry" />
        </mxCell>
        <mxCell id="dQi3K2ikhl7FJS8-el9H-263" value="Signature" style="rounded=0;whiteSpace=wrap;html=1;fontSize=16;container=0;fontStyle=1;fontFamily=Times New Roman;" parent="1" vertex="1">
          <mxGeometry x="319.17" y="1375.09" width="89.67" height="41.44" as="geometry" />
        </mxCell>
        <mxCell id="dQi3K2ikhl7FJS8-el9H-268" value="" style="endArrow=classic;html=1;rounded=0;entryX=1;entryY=0.5;entryDx=0;entryDy=0;fontStyle=1;fontFamily=Times New Roman;exitX=0;exitY=0.763;exitDx=0;exitDy=0;exitPerimeter=0;" parent="1" source="dQi3K2ikhl7FJS8-el9H-267" target="dQi3K2ikhl7FJS8-el9H-260" edge="1">
          <mxGeometry width="50" height="50" relative="1" as="geometry">
            <mxPoint x="429.83" y="1389.8572796390677" as="sourcePoint" />
            <mxPoint x="459.83" y="1231.646393925047" as="targetPoint" />
            <Array as="points">
              <mxPoint x="419.83" y="1392.5971328710277" />
              <mxPoint x="419.83" y="1347.48" />
            </Array>
          </mxGeometry>
        </mxCell>
        <mxCell id="wD-DZCwfwVYlk3r4DPER-4" value="" style="endArrow=classic;html=1;rounded=0;entryX=1;entryY=0.5;entryDx=0;entryDy=0;exitX=0;exitY=0.5;exitDx=0;exitDy=0;fontStyle=1;fontFamily=Times New Roman;" parent="1" source="wD-DZCwfwVYlk3r4DPER-2" target="dQi3K2ikhl7FJS8-el9H-259" edge="1">
          <mxGeometry width="50" height="50" relative="1" as="geometry">
            <mxPoint x="439.83" y="1140.474337176595" as="sourcePoint" />
            <mxPoint x="395.16333333333347" y="1285.520791094587" as="targetPoint" />
            <Array as="points">
              <mxPoint x="419.83" y="1170.3187202124004" />
              <mxPoint x="419.83" y="1298.48" />
            </Array>
          </mxGeometry>
        </mxCell>
        <mxCell id="dQi3K2ikhl7FJS8-el9H-1" value="" style="rounded=0;whiteSpace=wrap;html=1;arcSize=6;fillColor=#dae8fc;strokeColor=#6c8ebf;container=0;fontStyle=1;fontFamily=Times New Roman;" parent="1" vertex="1">
          <mxGeometry x="313" y="226.66000000000003" width="100" height="273.15" as="geometry" />
        </mxCell>
        <mxCell id="dQi3K2ikhl7FJS8-el9H-2" value="Prev Hash" style="rounded=0;whiteSpace=wrap;html=1;fontSize=16;container=0;fontStyle=1;fontFamily=Times New Roman;" parent="1" vertex="1">
          <mxGeometry x="318.33000000000004" y="305.68" width="89.67" height="41.44" as="geometry" />
        </mxCell>
        <mxCell id="dQi3K2ikhl7FJS8-el9H-3" value="Txs Root" style="rounded=0;whiteSpace=wrap;html=1;fontSize=16;container=0;fontStyle=1;fontFamily=Times New Roman;" parent="1" vertex="1">
          <mxGeometry x="318.33000000000004" y="355.40999999999997" width="89.67" height="41.44" as="geometry" />
        </mxCell>
        <mxCell id="dQi3K2ikhl7FJS8-el9H-4" value="States Root" style="rounded=0;whiteSpace=wrap;html=1;fontSize=16;container=0;fontStyle=1;fontFamily=Times New Roman;" parent="1" vertex="1">
          <mxGeometry x="318.33000000000004" y="405.14" width="89.67" height="41.44" as="geometry" />
        </mxCell>
        <mxCell id="dQi3K2ikhl7FJS8-el9H-5" value="Signature" style="rounded=0;whiteSpace=wrap;html=1;fontSize=16;container=0;fontStyle=1;fontFamily=Times New Roman;" parent="1" vertex="1">
          <mxGeometry x="318.33000000000004" y="454.87" width="89.67" height="41.44" as="geometry" />
        </mxCell>
        <mxCell id="dQi3K2ikhl7FJS8-el9H-6" value="&lt;font style=&quot;font-size: 16px;&quot;&gt;Timestamp&lt;/font&gt;" style="rounded=0;whiteSpace=wrap;html=1;fontSize=16;container=0;fontStyle=1;fontFamily=Times New Roman;" parent="1" vertex="1">
          <mxGeometry x="318.33000000000004" y="255.95" width="89.67" height="41.44" as="geometry" />
        </mxCell>
        <mxCell id="dQi3K2ikhl7FJS8-el9H-16" value="" style="endArrow=classic;html=1;rounded=0;entryX=1;entryY=0.5;entryDx=0;entryDy=0;exitX=-0.001;exitY=0.534;exitDx=0;exitDy=0;exitPerimeter=0;fontStyle=1;fontFamily=Times New Roman;" parent="1" source="dQi3K2ikhl7FJS8-el9H-8" target="dQi3K2ikhl7FJS8-el9H-3" edge="1">
          <mxGeometry width="50" height="50" relative="1" as="geometry">
            <mxPoint x="415" y="417.9324822922178" as="sourcePoint" />
            <mxPoint x="455" y="343.3371631343935" as="targetPoint" />
            <Array as="points">
              <mxPoint x="420" y="300.3" />
              <mxPoint x="420" y="376.3" />
            </Array>
          </mxGeometry>
        </mxCell>
        <mxCell id="dQi3K2ikhl7FJS8-el9H-23" value="" style="endArrow=classic;html=1;rounded=0;entryX=1;entryY=0.5;entryDx=0;entryDy=0;exitX=0.001;exitY=0.562;exitDx=0;exitDy=0;exitPerimeter=0;fontStyle=1;fontFamily=Times New Roman;" parent="1" source="dQi3K2ikhl7FJS8-el9H-17" target="dQi3K2ikhl7FJS8-el9H-4" edge="1">
          <mxGeometry width="50" height="50" relative="1" as="geometry">
            <mxPoint x="425" y="438.65340428050246" as="sourcePoint" />
            <mxPoint x="455" y="343.3371631343935" as="targetPoint" />
            <Array as="points">
              <mxPoint x="420" y="454.3" />
              <mxPoint x="420" y="426.3" />
            </Array>
          </mxGeometry>
        </mxCell>
        <mxCell id="dQi3K2ikhl7FJS8-el9H-133" value="" style="endArrow=classic;html=1;rounded=0;entryX=1;entryY=0.5;entryDx=0;entryDy=0;fontStyle=1;fontFamily=Times New Roman;" parent="1" target="dQi3K2ikhl7FJS8-el9H-124" edge="1">
          <mxGeometry width="50" height="50" relative="1" as="geometry">
            <mxPoint x="429.83" y="963.74" as="sourcePoint" />
            <mxPoint x="459.83" y="911.5989578865774" as="targetPoint" />
            <Array as="points">
              <mxPoint x="419.83" y="963.74" />
              <mxPoint x="419.83" y="978.74" />
            </Array>
          </mxGeometry>
        </mxCell>
        <mxCell id="dQi3K2ikhl7FJS8-el9H-161" value="" style="endArrow=classic;html=1;rounded=0;entryX=1;entryY=0.5;entryDx=0;entryDy=0;exitX=0;exitY=0.5;exitDx=0;exitDy=0;fontStyle=1;fontFamily=Times New Roman;" parent="1" source="dQi3K2ikhl7FJS8-el9H-135" target="dQi3K2ikhl7FJS8-el9H-125" edge="1">
          <mxGeometry width="50" height="50" relative="1" as="geometry">
            <mxPoint x="439.83" y="1054.6454118045692" as="sourcePoint" />
            <mxPoint x="389.83" y="967.617539453774" as="targetPoint" />
            <Array as="points">
              <mxPoint x="419.83" y="1104.74" />
              <mxPoint x="419.83" y="1024.74" />
            </Array>
          </mxGeometry>
        </mxCell>
        <mxCell id="dQi3K2ikhl7FJS8-el9H-8" value="" style="rounded=1;whiteSpace=wrap;html=1;arcSize=5;fillColor=#dae8fc;strokeColor=#6c8ebf;container=0;fontStyle=1;fontFamily=Times New Roman;" parent="1" vertex="1">
          <mxGeometry x="429.97" y="225" width="310.03" height="140.9002652027741" as="geometry" />
        </mxCell>
        <mxCell id="dQi3K2ikhl7FJS8-el9H-9" value="Transactions Tree" style="text;html=1;strokeColor=none;fillColor=none;align=center;verticalAlign=middle;whiteSpace=wrap;rounded=0;fontSize=16;container=0;fontStyle=1;fontFamily=Times New Roman;" parent="1" vertex="1">
          <mxGeometry x="429.97" y="225" width="140.03" height="24.87" as="geometry" />
        </mxCell>
        <mxCell id="dQi3K2ikhl7FJS8-el9H-10" value="Transaction #1" style="rounded=0;whiteSpace=wrap;html=1;fontSize=15;container=0;fontStyle=1;fontFamily=Times New Roman;" parent="1" vertex="1">
          <mxGeometry x="569.4835" y="258.1530035771233" width="159.444" height="16.576501788561654" as="geometry" />
        </mxCell>
        <mxCell id="dQi3K2ikhl7FJS8-el9H-11" value="Transaction #2" style="rounded=0;whiteSpace=wrap;html=1;fontSize=15;container=0;fontStyle=1;fontFamily=Times New Roman;" parent="1" vertex="1">
          <mxGeometry x="569.4835" y="283.0177562599658" width="159.444" height="16.576501788561654" as="geometry" />
        </mxCell>
        <mxCell id="dQi3K2ikhl7FJS8-el9H-12" value="&lt;font style=&quot;font-size: 22px;&quot;&gt;...&lt;/font&gt;" style="text;html=1;strokeColor=none;fillColor=none;align=center;verticalAlign=middle;whiteSpace=wrap;rounded=0;rotation=90;container=0;fontStyle=1;fontFamily=Times New Roman;" parent="1" vertex="1">
          <mxGeometry x="635.9185" y="307.8825089428083" width="33.217499999999994" height="12.432376341421243" as="geometry" />
        </mxCell>
        <mxCell id="dQi3K2ikhl7FJS8-el9H-15" value="Transaction #H" style="rounded=0;whiteSpace=wrap;html=1;fontSize=15;container=0;fontStyle=1;fontFamily=Times New Roman;" parent="1" vertex="1">
          <mxGeometry x="569.4835" y="328.6031361785104" width="159.444" height="16.576501788561654" as="geometry" />
        </mxCell>
        <mxCell id="dQi3K2ikhl7FJS8-el9H-17" value="" style="rounded=1;whiteSpace=wrap;html=1;arcSize=4;fillColor=#dae8fc;strokeColor=#6c8ebf;container=0;fontStyle=1;fontFamily=Times New Roman;" parent="1" vertex="1">
          <mxGeometry x="429.97" y="379.62798569150675" width="310.03" height="132.61201430849323" as="geometry" />
        </mxCell>
        <mxCell id="dQi3K2ikhl7FJS8-el9H-18" value="States Tree" style="text;html=1;strokeColor=none;fillColor=none;align=center;verticalAlign=middle;whiteSpace=wrap;rounded=0;fontSize=16;container=0;fontStyle=1;fontFamily=Times New Roman;" parent="1" vertex="1">
          <mxGeometry x="429.97" y="379.63" width="95.03" height="24.87" as="geometry" />
        </mxCell>
        <mxCell id="dQi3K2ikhl7FJS8-el9H-19" value="Account State #1" style="rounded=0;whiteSpace=wrap;html=1;fontSize=15;container=0;fontStyle=1;fontFamily=Times New Roman;" parent="1" vertex="1">
          <mxGeometry x="569.4835" y="412.7809892686301" width="159.444" height="16.576501788561654" as="geometry" />
        </mxCell>
        <mxCell id="dQi3K2ikhl7FJS8-el9H-20" value="Account State #2" style="rounded=0;whiteSpace=wrap;html=1;fontSize=15;container=0;fontStyle=1;fontFamily=Times New Roman;" parent="1" vertex="1">
          <mxGeometry x="569.4835" y="437.6457419514726" width="159.444" height="16.576501788561654" as="geometry" />
        </mxCell>
        <mxCell id="dQi3K2ikhl7FJS8-el9H-21" value="&lt;font style=&quot;font-size: 22px;&quot;&gt;...&lt;/font&gt;" style="text;html=1;strokeColor=none;fillColor=none;align=center;verticalAlign=middle;whiteSpace=wrap;rounded=0;rotation=90;container=0;fontStyle=1;fontFamily=Times New Roman;" parent="1" vertex="1">
          <mxGeometry x="635.9185" y="462.92490717902905" width="33.217499999999994" height="12.432376341421243" as="geometry" />
        </mxCell>
        <mxCell id="dQi3K2ikhl7FJS8-el9H-22" value="Account State #N" style="rounded=0;whiteSpace=wrap;html=1;fontSize=15;container=0;fontStyle=1;fontFamily=Times New Roman;" parent="1" vertex="1">
          <mxGeometry x="569.4835" y="483.2311218700171" width="159.444" height="16.576501788561654" as="geometry" />
        </mxCell>
        <mxCell id="dQi3K2ikhl7FJS8-el9H-79" value="" style="endArrow=none;html=1;rounded=0;fontStyle=1;fontFamily=Times New Roman;" parent="1" edge="1">
          <mxGeometry width="50" height="50" relative="1" as="geometry">
            <mxPoint x="547.3385000000001" y="266.44125447140414" as="sourcePoint" />
            <mxPoint x="569.4835" y="266.60701948928977" as="targetPoint" />
          </mxGeometry>
        </mxCell>
        <mxCell id="dQi3K2ikhl7FJS8-el9H-80" value="" style="endArrow=none;html=1;rounded=0;fontStyle=1;fontFamily=Times New Roman;" parent="1" edge="1">
          <mxGeometry width="50" height="50" relative="1" as="geometry">
            <mxPoint x="547.3385000000001" y="291.30600715424663" as="sourcePoint" />
            <mxPoint x="569.4835" y="291.30600715424663" as="targetPoint" />
          </mxGeometry>
        </mxCell>
        <mxCell id="dQi3K2ikhl7FJS8-el9H-81" value="" style="endArrow=none;html=1;rounded=0;fontStyle=1;fontFamily=Times New Roman;" parent="1" edge="1">
          <mxGeometry width="50" height="50" relative="1" as="geometry">
            <mxPoint x="547.3385000000001" y="336.8913870727912" as="sourcePoint" />
            <mxPoint x="569.4835" y="336.8913870727912" as="targetPoint" />
          </mxGeometry>
        </mxCell>
        <mxCell id="dQi3K2ikhl7FJS8-el9H-82" value="" style="endArrow=none;html=1;rounded=0;fontStyle=1;fontFamily=Times New Roman;" parent="1" edge="1">
          <mxGeometry width="50" height="50" relative="1" as="geometry">
            <mxPoint x="546.8956000000002" y="291.30600715424663" as="sourcePoint" />
            <mxPoint x="546.8956000000002" y="266.44125447140414" as="targetPoint" />
          </mxGeometry>
        </mxCell>
        <mxCell id="dQi3K2ikhl7FJS8-el9H-84" value="" style="endArrow=none;html=1;rounded=0;fontStyle=1;fontFamily=Times New Roman;" parent="1" edge="1">
          <mxGeometry width="50" height="50" relative="1" as="geometry">
            <mxPoint x="525.1935000000001" y="278.87363081282535" as="sourcePoint" />
            <mxPoint x="547.3385000000001" y="278.7078657949397" as="targetPoint" />
          </mxGeometry>
        </mxCell>
        <mxCell id="dQi3K2ikhl7FJS8-el9H-85" value="&lt;font style=&quot;font-size: 22px;&quot;&gt;...&lt;/font&gt;" style="text;html=1;strokeColor=none;fillColor=none;align=center;verticalAlign=middle;whiteSpace=wrap;rounded=0;rotation=90;container=0;fontStyle=1;fontFamily=Times New Roman;" parent="1" vertex="1">
          <mxGeometry x="505.2630000000001" y="295.4501326013871" width="33.217499999999994" height="12.432376341421243" as="geometry" />
        </mxCell>
        <mxCell id="dQi3K2ikhl7FJS8-el9H-86" value="" style="endArrow=none;html=1;rounded=0;fontStyle=1;fontFamily=Times New Roman;" parent="1" edge="1">
          <mxGeometry width="50" height="50" relative="1" as="geometry">
            <mxPoint x="525.1935000000001" y="324.95630578502676" as="sourcePoint" />
            <mxPoint x="547.3385000000001" y="325.1220708029124" as="targetPoint" />
          </mxGeometry>
        </mxCell>
        <mxCell id="dQi3K2ikhl7FJS8-el9H-88" value="" style="endArrow=none;html=1;rounded=0;fontStyle=1;fontFamily=Times New Roman;" parent="1" edge="1">
          <mxGeometry width="50" height="50" relative="1" as="geometry">
            <mxPoint x="467.61650000000003" y="287.82494177864874" as="sourcePoint" />
            <mxPoint x="489.7615" y="287.9907067965343" as="targetPoint" />
          </mxGeometry>
        </mxCell>
        <mxCell id="dQi3K2ikhl7FJS8-el9H-89" value="" style="endArrow=none;html=1;rounded=0;fontStyle=1;fontFamily=Times New Roman;" parent="1" edge="1">
          <mxGeometry width="50" height="50" relative="1" as="geometry">
            <mxPoint x="467.61650000000003" y="312.6896944614912" as="sourcePoint" />
            <mxPoint x="489.7615" y="312.6896944614912" as="targetPoint" />
          </mxGeometry>
        </mxCell>
        <mxCell id="dQi3K2ikhl7FJS8-el9H-90" value="" style="endArrow=none;html=1;rounded=0;fontStyle=1;fontFamily=Times New Roman;" parent="1" edge="1">
          <mxGeometry width="50" height="50" relative="1" as="geometry">
            <mxPoint x="467.1736000000001" y="312.6896944614912" as="sourcePoint" />
            <mxPoint x="467.1736000000001" y="287.82494177864874" as="targetPoint" />
          </mxGeometry>
        </mxCell>
        <mxCell id="dQi3K2ikhl7FJS8-el9H-91" value="" style="endArrow=none;html=1;rounded=0;exitX=0;exitY=0.534;exitDx=0;exitDy=0;exitPerimeter=0;fontStyle=1;fontFamily=Times New Roman;" parent="1" source="dQi3K2ikhl7FJS8-el9H-8" edge="1">
          <mxGeometry width="50" height="50" relative="1" as="geometry">
            <mxPoint x="445.47150000000005" y="300.25731812006995" as="sourcePoint" />
            <mxPoint x="467.61650000000003" y="300.09155310218426" as="targetPoint" />
          </mxGeometry>
        </mxCell>
        <mxCell id="dQi3K2ikhl7FJS8-el9H-92" value="" style="endArrow=none;html=1;rounded=0;fontStyle=1;fontFamily=Times New Roman;" parent="1" edge="1">
          <mxGeometry width="50" height="50" relative="1" as="geometry">
            <mxPoint x="547.3385000000001" y="420.49735085120557" as="sourcePoint" />
            <mxPoint x="569.4835" y="420.6631158690911" as="targetPoint" />
          </mxGeometry>
        </mxCell>
        <mxCell id="dQi3K2ikhl7FJS8-el9H-93" value="" style="endArrow=none;html=1;rounded=0;fontStyle=1;fontFamily=Times New Roman;" parent="1" edge="1">
          <mxGeometry width="50" height="50" relative="1" as="geometry">
            <mxPoint x="547.3385000000001" y="445.362103534048" as="sourcePoint" />
            <mxPoint x="569.4835" y="445.362103534048" as="targetPoint" />
          </mxGeometry>
        </mxCell>
        <mxCell id="dQi3K2ikhl7FJS8-el9H-94" value="" style="endArrow=none;html=1;rounded=0;fontStyle=1;fontFamily=Times New Roman;" parent="1" edge="1">
          <mxGeometry width="50" height="50" relative="1" as="geometry">
            <mxPoint x="547.3385000000001" y="490.9474834525925" as="sourcePoint" />
            <mxPoint x="569.4835" y="490.9474834525925" as="targetPoint" />
          </mxGeometry>
        </mxCell>
        <mxCell id="dQi3K2ikhl7FJS8-el9H-95" value="" style="endArrow=none;html=1;rounded=0;fontStyle=1;fontFamily=Times New Roman;" parent="1" edge="1">
          <mxGeometry width="50" height="50" relative="1" as="geometry">
            <mxPoint x="546.8956000000002" y="445.362103534048" as="sourcePoint" />
            <mxPoint x="546.8956000000002" y="420.49735085120557" as="targetPoint" />
          </mxGeometry>
        </mxCell>
        <mxCell id="dQi3K2ikhl7FJS8-el9H-97" value="" style="endArrow=none;html=1;rounded=0;fontStyle=1;fontFamily=Times New Roman;" parent="1" edge="1">
          <mxGeometry width="50" height="50" relative="1" as="geometry">
            <mxPoint x="525.1935000000001" y="432.9297271926267" as="sourcePoint" />
            <mxPoint x="547.3385000000001" y="432.76396217474115" as="targetPoint" />
          </mxGeometry>
        </mxCell>
        <mxCell id="dQi3K2ikhl7FJS8-el9H-98" value="&lt;font style=&quot;font-size: 22px;&quot;&gt;...&lt;/font&gt;" style="text;html=1;strokeColor=none;fillColor=none;align=center;verticalAlign=middle;whiteSpace=wrap;rounded=0;rotation=90;container=0;fontStyle=1;fontFamily=Times New Roman;" parent="1" vertex="1">
          <mxGeometry x="505.2630000000001" y="449.5062289811885" width="33.217499999999994" height="12.432376341421243" as="geometry" />
        </mxCell>
        <mxCell id="dQi3K2ikhl7FJS8-el9H-99" value="" style="endArrow=none;html=1;rounded=0;fontStyle=1;fontFamily=Times New Roman;" parent="1" edge="1">
          <mxGeometry width="50" height="50" relative="1" as="geometry">
            <mxPoint x="525.1935000000001" y="479.0124021648282" as="sourcePoint" />
            <mxPoint x="547.3385000000001" y="479.1781671827138" as="targetPoint" />
          </mxGeometry>
        </mxCell>
        <mxCell id="dQi3K2ikhl7FJS8-el9H-100" value="" style="endArrow=none;html=1;rounded=0;fontStyle=1;fontFamily=Times New Roman;" parent="1" edge="1">
          <mxGeometry width="50" height="50" relative="1" as="geometry">
            <mxPoint x="467.61650000000003" y="441.88103815845005" as="sourcePoint" />
            <mxPoint x="489.7615" y="442.04680317633563" as="targetPoint" />
          </mxGeometry>
        </mxCell>
        <mxCell id="dQi3K2ikhl7FJS8-el9H-101" value="" style="endArrow=none;html=1;rounded=0;fontStyle=1;fontFamily=Times New Roman;" parent="1" edge="1">
          <mxGeometry width="50" height="50" relative="1" as="geometry">
            <mxPoint x="467.61650000000003" y="466.74579084129255" as="sourcePoint" />
            <mxPoint x="489.7615" y="466.74579084129255" as="targetPoint" />
          </mxGeometry>
        </mxCell>
        <mxCell id="dQi3K2ikhl7FJS8-el9H-102" value="" style="endArrow=none;html=1;rounded=0;fontStyle=1;fontFamily=Times New Roman;" parent="1" edge="1">
          <mxGeometry width="50" height="50" relative="1" as="geometry">
            <mxPoint x="467.1736000000001" y="466.74579084129255" as="sourcePoint" />
            <mxPoint x="467.1736000000001" y="441.88103815845005" as="targetPoint" />
          </mxGeometry>
        </mxCell>
        <mxCell id="dQi3K2ikhl7FJS8-el9H-103" value="" style="endArrow=none;html=1;rounded=0;exitX=0.001;exitY=0.563;exitDx=0;exitDy=0;exitPerimeter=0;fontStyle=1;fontFamily=Times New Roman;" parent="1" source="dQi3K2ikhl7FJS8-el9H-17" edge="1">
          <mxGeometry width="50" height="50" relative="1" as="geometry">
            <mxPoint x="445.47150000000005" y="454.31341449987127" as="sourcePoint" />
            <mxPoint x="467.61650000000003" y="454.14764948198575" as="targetPoint" />
          </mxGeometry>
        </mxCell>
        <mxCell id="dQi3K2ikhl7FJS8-el9H-116" value="" style="endArrow=none;html=1;rounded=0;fontStyle=1;fontFamily=Times New Roman;" parent="1" edge="1">
          <mxGeometry width="50" height="50" relative="1" as="geometry">
            <mxPoint x="547.3385000000001" y="336.8913870727912" as="sourcePoint" />
            <mxPoint x="547.3385000000001" y="316.1707598370891" as="targetPoint" />
          </mxGeometry>
        </mxCell>
        <mxCell id="dQi3K2ikhl7FJS8-el9H-117" value="" style="endArrow=none;html=1;rounded=0;fontStyle=1;fontFamily=Times New Roman;" parent="1" edge="1">
          <mxGeometry width="50" height="50" relative="1" as="geometry">
            <mxPoint x="547.3385000000001" y="491.519372764298" as="sourcePoint" />
            <mxPoint x="547.3385000000001" y="470.79874552859593" as="targetPoint" />
          </mxGeometry>
        </mxCell>
        <mxCell id="dQi3K2ikhl7FJS8-el9H-48" value="" style="rounded=1;whiteSpace=wrap;html=1;arcSize=2;fillColor=#d5e8d4;strokeColor=#82b366;container=0;fontStyle=1;fontFamily=Times New Roman;" parent="1" vertex="1">
          <mxGeometry x="429.97" y="565" width="310.0299999999999" height="256.47" as="geometry" />
        </mxCell>
        <mxCell id="dQi3K2ikhl7FJS8-el9H-49" value="Local Account Graph" style="text;html=1;strokeColor=none;fillColor=none;align=center;verticalAlign=middle;whiteSpace=wrap;rounded=0;fontSize=16;container=0;fontStyle=1;fontFamily=Times New Roman;" parent="1" vertex="1">
          <mxGeometry x="429.97" y="565.81" width="165.03" height="24.87" as="geometry" />
        </mxCell>
        <mxCell id="dQi3K2ikhl7FJS8-el9H-50" value="" style="rounded=1;html=1;arcSize=6;container=0;fontStyle=1;fontFamily=Times New Roman;" parent="1" vertex="1">
          <mxGeometry x="445.47150000000005" y="602.281980487805" width="283.4559999999999" height="38.95529085365854" as="geometry" />
        </mxCell>
        <mxCell id="dQi3K2ikhl7FJS8-el9H-51" value="Account Address List" style="text;html=1;strokeColor=none;fillColor=none;align=center;verticalAlign=middle;whiteSpace=wrap;rounded=0;fontSize=13;container=0;fontStyle=1;fontFamily=Times New Roman;" parent="1" vertex="1">
          <mxGeometry x="447.1319798358316" y="602.2853449832957" width="122.63999000713773" height="16.57999115297271" as="geometry" />
        </mxCell>
        <mxCell id="dQi3K2ikhl7FJS8-el9H-52" value="Addr #1" style="rounded=0;whiteSpace=wrap;html=1;container=0;fontStyle=1;fontFamily=Times New Roman;" parent="1" vertex="1">
          <mxGeometry x="455.43675" y="618.8587" width="63.113249999999994" height="16.57671951219512" as="geometry" />
        </mxCell>
        <mxCell id="dQi3K2ikhl7FJS8-el9H-56" value="Addr #2" style="rounded=0;whiteSpace=wrap;html=1;container=0;fontStyle=1;fontFamily=Times New Roman;" parent="1" vertex="1">
          <mxGeometry x="529.6225" y="618.8587" width="63.113249999999994" height="16.57671951219512" as="geometry" />
        </mxCell>
        <mxCell id="dQi3K2ikhl7FJS8-el9H-57" value="Addr #N" style="rounded=0;whiteSpace=wrap;html=1;container=0;fontStyle=1;fontFamily=Times New Roman;" parent="1" vertex="1">
          <mxGeometry x="653.6345" y="618.8587" width="63.113249999999994" height="16.57671951219512" as="geometry" />
        </mxCell>
        <mxCell id="dQi3K2ikhl7FJS8-el9H-58" value="..." style="text;html=1;strokeColor=none;fillColor=none;align=center;verticalAlign=middle;whiteSpace=wrap;rounded=0;fontSize=15;container=0;fontStyle=1;fontFamily=Times New Roman;" parent="1" vertex="1">
          <mxGeometry x="591.6285" y="618.8587" width="63.113249999999994" height="12.432539634146343" as="geometry" />
        </mxCell>
        <mxCell id="dQi3K2ikhl7FJS8-el9H-59" value="" style="rounded=1;html=1;arcSize=6;container=0;fontStyle=1;fontFamily=Times New Roman;" parent="1" vertex="1">
          <mxGeometry x="445.47150000000005" y="654.4986469512196" width="283.4559999999999" height="45.58597865853659" as="geometry" />
        </mxCell>
        <mxCell id="dQi3K2ikhl7FJS8-el9H-60" value="Vertex Weight List" style="text;html=1;strokeColor=none;fillColor=none;align=center;verticalAlign=middle;whiteSpace=wrap;rounded=0;fontSize=13;container=0;fontStyle=1;fontFamily=Times New Roman;" parent="1" vertex="1">
          <mxGeometry x="445.4727329122056" y="654.4953171242307" width="110.77276744468234" height="16.57999115297271" as="geometry" />
        </mxCell>
        <mxCell id="dQi3K2ikhl7FJS8-el9H-61" value="W&lt;sup&gt;v&lt;/sup&gt; #1" style="rounded=0;whiteSpace=wrap;html=1;container=0;fontStyle=1;fontFamily=Times New Roman;" parent="1" vertex="1">
          <mxGeometry x="455.43675" y="675.2195463414633" width="63.113249999999994" height="16.57671951219512" as="geometry" />
        </mxCell>
        <mxCell id="dQi3K2ikhl7FJS8-el9H-62" value="W&lt;sup&gt;v&lt;/sup&gt; #2" style="rounded=0;whiteSpace=wrap;html=1;container=0;fontStyle=1;fontFamily=Times New Roman;" parent="1" vertex="1">
          <mxGeometry x="528.51525" y="675.2195463414633" width="63.113249999999994" height="16.57671951219512" as="geometry" />
        </mxCell>
        <mxCell id="dQi3K2ikhl7FJS8-el9H-63" value="W&lt;sup&gt;v&lt;/sup&gt; #N" style="rounded=0;whiteSpace=wrap;html=1;container=0;fontStyle=1;fontFamily=Times New Roman;" parent="1" vertex="1">
          <mxGeometry x="654.7417499999999" y="675.2195463414633" width="63.113249999999994" height="16.57671951219512" as="geometry" />
        </mxCell>
        <mxCell id="dQi3K2ikhl7FJS8-el9H-65" value="" style="rounded=1;html=1;arcSize=6;container=0;fontStyle=1;fontFamily=Times New Roman;" parent="1" vertex="1">
          <mxGeometry x="445.47150000000005" y="710.0306573170732" width="283.4559999999999" height="46.414814634146346" as="geometry" />
        </mxCell>
        <mxCell id="dQi3K2ikhl7FJS8-el9H-66" value="Edge List" style="text;html=1;strokeColor=none;fillColor=none;align=center;verticalAlign=middle;whiteSpace=wrap;rounded=0;fontSize=13;container=0;fontStyle=1;fontFamily=Times New Roman;" parent="1" vertex="1">
          <mxGeometry x="445.4727329122056" y="710.0352874882902" width="70.19335898643824" height="16.57999115297271" as="geometry" />
        </mxCell>
        <mxCell id="dQi3K2ikhl7FJS8-el9H-67" value="Edge #1" style="rounded=0;whiteSpace=wrap;html=1;container=0;fontStyle=1;fontFamily=Times New Roman;" parent="1" vertex="1">
          <mxGeometry x="455.43675" y="730.7515567073169" width="63.113249999999994" height="16.57671951219512" as="geometry" />
        </mxCell>
        <mxCell id="dQi3K2ikhl7FJS8-el9H-68" value="Edge #2" style="rounded=0;whiteSpace=wrap;html=1;container=0;fontStyle=1;fontFamily=Times New Roman;" parent="1" vertex="1">
          <mxGeometry x="528.51525" y="730.7515567073169" width="63.113249999999994" height="16.57671951219512" as="geometry" />
        </mxCell>
        <mxCell id="dQi3K2ikhl7FJS8-el9H-69" value="Edge #M" style="rounded=0;whiteSpace=wrap;html=1;container=0;fontStyle=1;fontFamily=Times New Roman;" parent="1" vertex="1">
          <mxGeometry x="654.7417499999999" y="730.7515567073169" width="63.113249999999994" height="16.57671951219512" as="geometry" />
        </mxCell>
        <mxCell id="dQi3K2ikhl7FJS8-el9H-70" value="" style="rounded=1;html=1;arcSize=6;container=0;fontStyle=1;fontFamily=Times New Roman;" parent="1" vertex="1">
          <mxGeometry x="445.47150000000005" y="769.7068475609756" width="283.4559999999999" height="43.92830670731707" as="geometry" />
        </mxCell>
        <mxCell id="dQi3K2ikhl7FJS8-el9H-71" value="Edge Weight List" style="text;html=1;strokeColor=none;fillColor=none;align=center;verticalAlign=middle;whiteSpace=wrap;rounded=0;fontSize=13;container=0;fontStyle=1;fontFamily=Times New Roman;" parent="1" vertex="1">
          <mxGeometry x="445.4727329122056" y="769.7052556485967" width="106.26394428265522" height="16.57999115297271" as="geometry" />
        </mxCell>
        <mxCell id="dQi3K2ikhl7FJS8-el9H-72" value="W&lt;sup&gt;e&lt;/sup&gt; #1" style="rounded=0;whiteSpace=wrap;html=1;container=0;fontStyle=1;fontFamily=Times New Roman;" parent="1" vertex="1">
          <mxGeometry x="455.43675" y="792.0854189024391" width="63.113249999999994" height="14.919047560975608" as="geometry" />
        </mxCell>
        <mxCell id="dQi3K2ikhl7FJS8-el9H-73" value="W&lt;sup&gt;e&lt;/sup&gt; #2" style="rounded=0;whiteSpace=wrap;html=1;container=0;fontStyle=1;fontFamily=Times New Roman;" parent="1" vertex="1">
          <mxGeometry x="528.51525" y="792.0854189024391" width="63.113249999999994" height="16.57671951219512" as="geometry" />
        </mxCell>
        <mxCell id="dQi3K2ikhl7FJS8-el9H-74" value="W&lt;sup&gt;e&lt;/sup&gt; #M" style="rounded=0;whiteSpace=wrap;html=1;container=0;fontStyle=1;fontFamily=Times New Roman;" parent="1" vertex="1">
          <mxGeometry x="654.7417499999999" y="792.0854189024391" width="63.113249999999994" height="16.57671951219512" as="geometry" />
        </mxCell>
        <mxCell id="dQi3K2ikhl7FJS8-el9H-75" value="..." style="text;html=1;strokeColor=none;fillColor=none;align=center;verticalAlign=middle;whiteSpace=wrap;rounded=0;fontSize=15;container=0;fontStyle=1;fontFamily=Times New Roman;" parent="1" vertex="1">
          <mxGeometry x="590.52125" y="675.2195463414633" width="63.113249999999994" height="12.432539634146343" as="geometry" />
        </mxCell>
        <mxCell id="dQi3K2ikhl7FJS8-el9H-76" value="..." style="text;html=1;strokeColor=none;fillColor=none;align=center;verticalAlign=middle;whiteSpace=wrap;rounded=0;fontSize=15;container=0;fontStyle=1;fontFamily=Times New Roman;" parent="1" vertex="1">
          <mxGeometry x="590.52125" y="730.7515567073169" width="63.113249999999994" height="12.432539634146343" as="geometry" />
        </mxCell>
        <mxCell id="dQi3K2ikhl7FJS8-el9H-77" value="..." style="text;html=1;strokeColor=none;fillColor=none;align=center;verticalAlign=middle;whiteSpace=wrap;rounded=0;fontSize=15;container=0;fontStyle=1;fontFamily=Times New Roman;" parent="1" vertex="1">
          <mxGeometry x="590.52125" y="792.0854189024391" width="63.113249999999994" height="12.432539634146343" as="geometry" />
        </mxCell>
        <mxCell id="dQi3K2ikhl7FJS8-el9H-132" value="" style="rounded=1;whiteSpace=wrap;html=1;arcSize=2;fillColor=#ffe6cc;strokeColor=#d79b00;fontStyle=1;fontFamily=Times New Roman;" parent="1" vertex="1">
          <mxGeometry x="429.8562927256792" y="835" width="313.86853637160385" height="223.78621621621613" as="geometry" />
        </mxCell>
        <mxCell id="dQi3K2ikhl7FJS8-el9H-134" value="States Tree" style="text;html=1;strokeColor=none;fillColor=none;align=center;verticalAlign=middle;whiteSpace=wrap;rounded=0;fontSize=16;fontStyle=1;fontFamily=Times New Roman;" parent="1" vertex="1">
          <mxGeometry x="429.85999999999996" y="835" width="94.97" height="24.87" as="geometry" />
        </mxCell>
        <mxCell id="dQi3K2ikhl7FJS8-el9H-135" value="" style="rounded=1;whiteSpace=wrap;html=1;arcSize=8;fillColor=#ffe6cc;strokeColor=#d79b00;fontStyle=1;fontFamily=Times New Roman;" parent="1" vertex="1">
          <mxGeometry x="429.8562927256792" y="1067.0745945945946" width="314.97370727432076" height="74.59540540540536" as="geometry" />
        </mxCell>
        <mxCell id="dQi3K2ikhl7FJS8-el9H-136" value="Allocation Table" style="text;html=1;strokeColor=none;fillColor=none;align=center;verticalAlign=middle;whiteSpace=wrap;rounded=0;fontSize=16;fontStyle=1;fontFamily=Times New Roman;" parent="1" vertex="1">
          <mxGeometry x="429.58" y="1067.077488720271" width="121.73465381870092" height="24.867400922906572" as="geometry" />
        </mxCell>
        <mxCell id="dQi3K2ikhl7FJS8-el9H-162" value="" style="shape=table;startSize=0;container=1;collapsible=0;childLayout=tableLayout;fontSize=16;fontStyle=1;fontFamily=Times New Roman;" parent="1" vertex="1">
          <mxGeometry x="440.90800175284835" y="1091.9397297297294" width="287.3444347063979" height="41.44189189189187" as="geometry" />
        </mxCell>
        <mxCell id="dQi3K2ikhl7FJS8-el9H-163" value="" style="shape=tableRow;horizontal=0;startSize=0;swimlaneHead=0;swimlaneBody=0;strokeColor=inherit;top=0;left=0;bottom=0;right=0;collapsible=0;dropTarget=0;fillColor=none;points=[[0,0.5],[1,0.5]];portConstraint=eastwest;fontSize=14;fontStyle=1;fontFamily=Times New Roman;" parent="dQi3K2ikhl7FJS8-el9H-162" vertex="1">
          <mxGeometry width="287.3444347063979" height="20" as="geometry" />
        </mxCell>
        <mxCell id="dQi3K2ikhl7FJS8-el9H-164" value="&lt;font style=&quot;font-size: 13px;&quot;&gt;Addr #1&lt;/font&gt;" style="shape=partialRectangle;html=1;whiteSpace=wrap;connectable=0;strokeColor=inherit;overflow=hidden;fillColor=none;top=0;left=0;bottom=0;right=0;pointerEvents=1;fontSize=16;fontStyle=1;fontFamily=Times New Roman;" parent="dQi3K2ikhl7FJS8-el9H-163" vertex="1">
          <mxGeometry width="66" height="20" as="geometry">
            <mxRectangle width="66" height="20" as="alternateBounds" />
          </mxGeometry>
        </mxCell>
        <mxCell id="dQi3K2ikhl7FJS8-el9H-165" value="&lt;font style=&quot;font-size: 13px;&quot;&gt;Addr #2&lt;/font&gt;" style="shape=partialRectangle;html=1;whiteSpace=wrap;connectable=0;strokeColor=inherit;overflow=hidden;fillColor=none;top=0;left=0;bottom=0;right=0;pointerEvents=1;fontSize=16;fontStyle=1;fontFamily=Times New Roman;" parent="dQi3K2ikhl7FJS8-el9H-163" vertex="1">
          <mxGeometry x="66" width="66" height="20" as="geometry">
            <mxRectangle width="66" height="20" as="alternateBounds" />
          </mxGeometry>
        </mxCell>
        <mxCell id="dQi3K2ikhl7FJS8-el9H-175" value="..." style="shape=partialRectangle;html=1;whiteSpace=wrap;connectable=0;strokeColor=inherit;overflow=hidden;fillColor=none;top=0;left=0;bottom=0;right=0;pointerEvents=1;fontSize=16;fontStyle=1;fontFamily=Times New Roman;" parent="dQi3K2ikhl7FJS8-el9H-163" vertex="1">
          <mxGeometry x="132" width="45" height="20" as="geometry">
            <mxRectangle width="45" height="20" as="alternateBounds" />
          </mxGeometry>
        </mxCell>
        <mxCell id="dQi3K2ikhl7FJS8-el9H-177" value="..." style="shape=partialRectangle;html=1;whiteSpace=wrap;connectable=0;strokeColor=inherit;overflow=hidden;fillColor=none;top=0;left=0;bottom=0;right=0;pointerEvents=1;fontSize=16;fontStyle=1;fontFamily=Times New Roman;" parent="dQi3K2ikhl7FJS8-el9H-163" vertex="1">
          <mxGeometry x="177" width="46" height="20" as="geometry">
            <mxRectangle width="46" height="20" as="alternateBounds" />
          </mxGeometry>
        </mxCell>
        <mxCell id="dQi3K2ikhl7FJS8-el9H-179" value="&lt;font style=&quot;font-size: 13px;&quot;&gt;Addr #N&lt;/font&gt;" style="shape=partialRectangle;html=1;whiteSpace=wrap;connectable=0;strokeColor=inherit;overflow=hidden;fillColor=none;top=0;left=0;bottom=0;right=0;pointerEvents=1;fontSize=16;fontStyle=1;fontFamily=Times New Roman;" parent="dQi3K2ikhl7FJS8-el9H-163" vertex="1">
          <mxGeometry x="223" width="64" height="20" as="geometry">
            <mxRectangle width="64" height="20" as="alternateBounds" />
          </mxGeometry>
        </mxCell>
        <mxCell id="dQi3K2ikhl7FJS8-el9H-167" value="" style="shape=tableRow;horizontal=0;startSize=0;swimlaneHead=0;swimlaneBody=0;strokeColor=inherit;top=0;left=0;bottom=0;right=0;collapsible=0;dropTarget=0;fillColor=none;points=[[0,0.5],[1,0.5]];portConstraint=eastwest;fontSize=16;fontStyle=1;fontFamily=Times New Roman;" parent="dQi3K2ikhl7FJS8-el9H-162" vertex="1">
          <mxGeometry y="20" width="287.3444347063979" height="21" as="geometry" />
        </mxCell>
        <mxCell id="dQi3K2ikhl7FJS8-el9H-168" value="&lt;font style=&quot;font-size: 13px;&quot;&gt;Shard #1&lt;/font&gt;" style="shape=partialRectangle;html=1;whiteSpace=wrap;connectable=0;strokeColor=inherit;overflow=hidden;fillColor=none;top=0;left=0;bottom=0;right=0;pointerEvents=1;fontSize=16;fontStyle=1;fontFamily=Times New Roman;" parent="dQi3K2ikhl7FJS8-el9H-167" vertex="1">
          <mxGeometry width="66" height="21" as="geometry">
            <mxRectangle width="66" height="21" as="alternateBounds" />
          </mxGeometry>
        </mxCell>
        <mxCell id="dQi3K2ikhl7FJS8-el9H-169" value="&lt;font style=&quot;font-size: 13px;&quot;&gt;Shard #2&lt;/font&gt;" style="shape=partialRectangle;html=1;whiteSpace=wrap;connectable=0;strokeColor=inherit;overflow=hidden;fillColor=none;top=0;left=0;bottom=0;right=0;pointerEvents=1;fontSize=16;fontStyle=1;fontFamily=Times New Roman;" parent="dQi3K2ikhl7FJS8-el9H-167" vertex="1">
          <mxGeometry x="66" width="66" height="21" as="geometry">
            <mxRectangle width="66" height="21" as="alternateBounds" />
          </mxGeometry>
        </mxCell>
        <mxCell id="dQi3K2ikhl7FJS8-el9H-176" value="..." style="shape=partialRectangle;html=1;whiteSpace=wrap;connectable=0;strokeColor=inherit;overflow=hidden;fillColor=none;top=0;left=0;bottom=0;right=0;pointerEvents=1;fontSize=16;fontStyle=1;fontFamily=Times New Roman;" parent="dQi3K2ikhl7FJS8-el9H-167" vertex="1">
          <mxGeometry x="132" width="45" height="21" as="geometry">
            <mxRectangle width="45" height="21" as="alternateBounds" />
          </mxGeometry>
        </mxCell>
        <mxCell id="dQi3K2ikhl7FJS8-el9H-178" value="..." style="shape=partialRectangle;html=1;whiteSpace=wrap;connectable=0;strokeColor=inherit;overflow=hidden;fillColor=none;top=0;left=0;bottom=0;right=0;pointerEvents=1;fontSize=16;fontStyle=1;fontFamily=Times New Roman;" parent="dQi3K2ikhl7FJS8-el9H-167" vertex="1">
          <mxGeometry x="177" width="46" height="21" as="geometry">
            <mxRectangle width="46" height="21" as="alternateBounds" />
          </mxGeometry>
        </mxCell>
        <mxCell id="dQi3K2ikhl7FJS8-el9H-180" value="&lt;font style=&quot;font-size: 13px;&quot;&gt;Shard #N&lt;/font&gt;" style="shape=partialRectangle;html=1;whiteSpace=wrap;connectable=0;strokeColor=inherit;overflow=hidden;fillColor=none;top=0;left=0;bottom=0;right=0;pointerEvents=1;fontSize=16;fontStyle=1;fontFamily=Times New Roman;" parent="dQi3K2ikhl7FJS8-el9H-167" vertex="1">
          <mxGeometry x="223" width="64" height="21" as="geometry">
            <mxRectangle width="64" height="21" as="alternateBounds" />
          </mxGeometry>
        </mxCell>
        <mxCell id="dQi3K2ikhl7FJS8-el9H-200" value="" style="rounded=1;whiteSpace=wrap;html=1;arcSize=5;fontStyle=1;fontFamily=Times New Roman;" parent="1" vertex="1">
          <mxGeometry x="562.476801051709" y="844.9460540540541" width="175.16958808063103" height="74.59540540540536" as="geometry" />
        </mxCell>
        <mxCell id="dQi3K2ikhl7FJS8-el9H-184" value="&lt;font style=&quot;font-size: 12px;&quot;&gt;State #0,1&lt;/font&gt;" style="rounded=0;whiteSpace=wrap;html=1;fontSize=15;fontStyle=1;fontFamily=Times New Roman;" parent="1" vertex="1">
          <mxGeometry x="656.4163277826468" y="847.4325675675675" width="72.94127957931639" height="16.576756756756748" as="geometry" />
        </mxCell>
        <mxCell id="dQi3K2ikhl7FJS8-el9H-185" value="&lt;font style=&quot;font-size: 12px;&quot;&gt;State #0,2&lt;/font&gt;" style="rounded=0;whiteSpace=wrap;html=1;fontSize=15;fontStyle=1;fontFamily=Times New Roman;" parent="1" vertex="1">
          <mxGeometry x="656.4163277826468" y="867.5816154054052" width="72.94127957931639" height="16.576756756756748" as="geometry" />
        </mxCell>
        <mxCell id="dQi3K2ikhl7FJS8-el9H-186" value="&lt;font style=&quot;font-size: 22px;&quot;&gt;...&lt;/font&gt;" style="text;html=1;strokeColor=none;fillColor=none;align=center;verticalAlign=middle;whiteSpace=wrap;rounded=0;rotation=90;fontStyle=1;fontFamily=Times New Roman;" parent="1" vertex="1">
          <mxGeometry x="691.0965907099038" y="886.959844054054" width="11.328001752848378" height="12.432567567567563" as="geometry" />
        </mxCell>
        <mxCell id="dQi3K2ikhl7FJS8-el9H-187" value="&lt;font style=&quot;font-size: 12px;&quot;&gt;State #0,P&lt;/font&gt;&lt;font style=&quot;font-size: 11px;&quot;&gt;&lt;sub&gt;0&lt;/sub&gt;&lt;/font&gt;" style="rounded=0;whiteSpace=wrap;html=1;fontSize=15;fontStyle=1;fontFamily=Times New Roman;" parent="1" vertex="1">
          <mxGeometry x="656.4163277826468" y="900.5279194594594" width="72.94127957931639" height="16.576756756756748" as="geometry" />
        </mxCell>
        <mxCell id="dQi3K2ikhl7FJS8-el9H-188" value="" style="endArrow=none;html=1;rounded=0;fontStyle=1;fontFamily=Times New Roman;" parent="1" edge="1">
          <mxGeometry width="50" height="50" relative="1" as="geometry">
            <mxPoint x="634.3129097283085" y="855.1490478378378" as="sourcePoint" />
            <mxPoint x="656.4163277826468" y="855.3148154054054" as="targetPoint" />
          </mxGeometry>
        </mxCell>
        <mxCell id="dQi3K2ikhl7FJS8-el9H-189" value="" style="endArrow=none;html=1;rounded=0;fontStyle=1;fontFamily=Times New Roman;" parent="1" edge="1">
          <mxGeometry width="50" height="50" relative="1" as="geometry">
            <mxPoint x="634.3129097283085" y="875.8699937837837" as="sourcePoint" />
            <mxPoint x="656.4163277826468" y="875.8699937837837" as="targetPoint" />
          </mxGeometry>
        </mxCell>
        <mxCell id="dQi3K2ikhl7FJS8-el9H-192" value="" style="endArrow=none;html=1;rounded=0;fontStyle=1;fontFamily=Times New Roman;" parent="1" edge="1">
          <mxGeometry width="50" height="50" relative="1" as="geometry">
            <mxPoint x="612.2094916739703" y="865.8327675675675" as="sourcePoint" />
            <mxPoint x="634.3129097283085" y="865.667" as="targetPoint" />
          </mxGeometry>
        </mxCell>
        <mxCell id="dQi3K2ikhl7FJS8-el9H-193" value="&lt;font style=&quot;font-size: 22px;&quot;&gt;...&lt;/font&gt;" style="text;html=1;strokeColor=none;fillColor=none;align=center;verticalAlign=middle;whiteSpace=wrap;rounded=0;rotation=90;fontStyle=1;fontFamily=Times New Roman;" parent="1" vertex="1">
          <mxGeometry x="600.0526117440842" y="876.6988316216216" width="33.155127081507445" height="7.459540540540536" as="geometry" />
        </mxCell>
        <mxCell id="dQi3K2ikhl7FJS8-el9H-202" value="" style="endArrow=none;html=1;rounded=0;fontStyle=1;fontFamily=Times New Roman;" parent="1" edge="1">
          <mxGeometry width="50" height="50" relative="1" as="geometry">
            <mxPoint x="634.7328746713412" y="854.892108108108" as="sourcePoint" />
            <mxPoint x="634.3129097283085" y="875.613054054054" as="targetPoint" />
          </mxGeometry>
        </mxCell>
        <mxCell id="dQi3K2ikhl7FJS8-el9H-204" value="" style="endArrow=none;html=1;rounded=0;fontStyle=1;fontFamily=Times New Roman;" parent="1" edge="1">
          <mxGeometry width="50" height="50" relative="1" as="geometry">
            <mxPoint x="634.3129097283085" y="907.9377297297297" as="sourcePoint" />
            <mxPoint x="656.4163277826468" y="907.9377297297297" as="targetPoint" />
          </mxGeometry>
        </mxCell>
        <mxCell id="dQi3K2ikhl7FJS8-el9H-205" value="" style="endArrow=none;html=1;rounded=0;fontStyle=1;fontFamily=Times New Roman;" parent="1" edge="1">
          <mxGeometry width="50" height="50" relative="1" as="geometry">
            <mxPoint x="612.2094916739703" y="897.9005035135135" as="sourcePoint" />
            <mxPoint x="634.3129097283085" y="897.734735945946" as="targetPoint" />
          </mxGeometry>
        </mxCell>
        <mxCell id="dQi3K2ikhl7FJS8-el9H-206" value="" style="endArrow=none;html=1;rounded=0;fontStyle=1;fontFamily=Times New Roman;" parent="1" edge="1">
          <mxGeometry width="50" height="50" relative="1" as="geometry">
            <mxPoint x="634.7328746713412" y="886.959844054054" as="sourcePoint" />
            <mxPoint x="634.3129097283085" y="907.6807900000001" as="targetPoint" />
          </mxGeometry>
        </mxCell>
        <mxCell id="dQi3K2ikhl7FJS8-el9H-207" value="" style="endArrow=none;html=1;rounded=0;fontStyle=1;fontFamily=Times New Roman;" parent="1" edge="1">
          <mxGeometry width="50" height="50" relative="1" as="geometry">
            <mxPoint x="580.1595354951797" y="871.7506697297298" as="sourcePoint" />
            <mxPoint x="602.2629535495181" y="871.9164372972971" as="targetPoint" />
          </mxGeometry>
        </mxCell>
        <mxCell id="dQi3K2ikhl7FJS8-el9H-208" value="" style="endArrow=none;html=1;rounded=0;fontStyle=1;fontFamily=Times New Roman;" parent="1" edge="1">
          <mxGeometry width="50" height="50" relative="1" as="geometry">
            <mxPoint x="580.1595354951797" y="892.4716156756755" as="sourcePoint" />
            <mxPoint x="602.2629535495181" y="892.4716156756755" as="targetPoint" />
          </mxGeometry>
        </mxCell>
        <mxCell id="dQi3K2ikhl7FJS8-el9H-209" value="" style="endArrow=none;html=1;rounded=0;fontStyle=1;fontFamily=Times New Roman;" parent="1" edge="1">
          <mxGeometry width="50" height="50" relative="1" as="geometry">
            <mxPoint x="540.3733829973708" y="882.268621891892" as="sourcePoint" />
            <mxPoint x="580.1595354951797" y="882.268621891892" as="targetPoint" />
          </mxGeometry>
        </mxCell>
        <mxCell id="dQi3K2ikhl7FJS8-el9H-210" value="" style="endArrow=none;html=1;rounded=0;fontStyle=1;fontFamily=Times New Roman;" parent="1" edge="1">
          <mxGeometry width="50" height="50" relative="1" as="geometry">
            <mxPoint x="580.5795004382122" y="871.49373" as="sourcePoint" />
            <mxPoint x="580.1595354951797" y="892.2146759459459" as="targetPoint" />
          </mxGeometry>
        </mxCell>
        <mxCell id="dQi3K2ikhl7FJS8-el9H-211" value="&lt;font style=&quot;font-size: 13px;&quot;&gt;Shard 0&lt;/font&gt;" style="text;html=1;strokeColor=none;fillColor=none;align=center;verticalAlign=middle;whiteSpace=wrap;rounded=0;fontSize=16;fontStyle=1;fontFamily=Times New Roman;" parent="1" vertex="1">
          <mxGeometry x="562.476801051709" y="844.9460540540541" width="66.31025416301489" height="18.234432432432424" as="geometry" />
        </mxCell>
        <mxCell id="dQi3K2ikhl7FJS8-el9H-212" value="" style="rounded=1;whiteSpace=wrap;html=1;arcSize=5;fontStyle=1;fontFamily=Times New Roman;" parent="1" vertex="1">
          <mxGeometry x="562.476801051709" y="927.8298378378378" width="175.16958808063103" height="74.59540540540536" as="geometry" />
        </mxCell>
        <mxCell id="dQi3K2ikhl7FJS8-el9H-213" value="&lt;font style=&quot;font-size: 12px;&quot;&gt;State #1,1&lt;/font&gt;" style="rounded=0;whiteSpace=wrap;html=1;fontSize=15;fontStyle=1;fontFamily=Times New Roman;" parent="1" vertex="1">
          <mxGeometry x="656.4163277826468" y="930.3163513513512" width="72.94127957931639" height="16.576756756756748" as="geometry" />
        </mxCell>
        <mxCell id="dQi3K2ikhl7FJS8-el9H-214" value="&lt;font style=&quot;font-size: 12px;&quot;&gt;State #1,2&lt;/font&gt;" style="rounded=0;whiteSpace=wrap;html=1;fontSize=15;fontStyle=1;fontFamily=Times New Roman;" parent="1" vertex="1">
          <mxGeometry x="656.4163277826468" y="950.4653991891889" width="72.94127957931639" height="16.576756756756748" as="geometry" />
        </mxCell>
        <mxCell id="dQi3K2ikhl7FJS8-el9H-215" value="&lt;font style=&quot;font-size: 22px;&quot;&gt;...&lt;/font&gt;" style="text;html=1;strokeColor=none;fillColor=none;align=center;verticalAlign=middle;whiteSpace=wrap;rounded=0;rotation=90;fontStyle=1;fontFamily=Times New Roman;" parent="1" vertex="1">
          <mxGeometry x="691.0965907099038" y="969.8436278378381" width="11.328001752848378" height="12.432567567567563" as="geometry" />
        </mxCell>
        <mxCell id="dQi3K2ikhl7FJS8-el9H-216" value="&lt;font style=&quot;font-size: 12px;&quot;&gt;State #1,P&lt;/font&gt;&lt;font style=&quot;font-size: 8.33333px;&quot;&gt;&lt;sub&gt;1&lt;/sub&gt;&lt;/font&gt;" style="rounded=0;whiteSpace=wrap;html=1;fontSize=15;fontStyle=1;fontFamily=Times New Roman;" parent="1" vertex="1">
          <mxGeometry x="656.4163277826468" y="983.411703243243" width="72.94127957931639" height="16.576756756756748" as="geometry" />
        </mxCell>
        <mxCell id="dQi3K2ikhl7FJS8-el9H-217" value="" style="endArrow=none;html=1;rounded=0;fontStyle=1;fontFamily=Times New Roman;" parent="1" edge="1">
          <mxGeometry width="50" height="50" relative="1" as="geometry">
            <mxPoint x="634.3129097283085" y="938.0328316216212" as="sourcePoint" />
            <mxPoint x="656.4163277826468" y="938.1985991891892" as="targetPoint" />
          </mxGeometry>
        </mxCell>
        <mxCell id="dQi3K2ikhl7FJS8-el9H-218" value="" style="endArrow=none;html=1;rounded=0;fontStyle=1;fontFamily=Times New Roman;" parent="1" edge="1">
          <mxGeometry width="50" height="50" relative="1" as="geometry">
            <mxPoint x="634.3129097283085" y="958.7537775675678" as="sourcePoint" />
            <mxPoint x="656.4163277826468" y="958.7537775675678" as="targetPoint" />
          </mxGeometry>
        </mxCell>
        <mxCell id="dQi3K2ikhl7FJS8-el9H-219" value="" style="endArrow=none;html=1;rounded=0;fontStyle=1;fontFamily=Times New Roman;" parent="1" edge="1">
          <mxGeometry width="50" height="50" relative="1" as="geometry">
            <mxPoint x="612.2094916739703" y="948.7165513513512" as="sourcePoint" />
            <mxPoint x="634.3129097283085" y="948.550783783784" as="targetPoint" />
          </mxGeometry>
        </mxCell>
        <mxCell id="dQi3K2ikhl7FJS8-el9H-220" value="&lt;font style=&quot;font-size: 22px;&quot;&gt;...&lt;/font&gt;" style="text;html=1;strokeColor=none;fillColor=none;align=center;verticalAlign=middle;whiteSpace=wrap;rounded=0;rotation=90;fontStyle=1;fontFamily=Times New Roman;" parent="1" vertex="1">
          <mxGeometry x="600.0526117440842" y="959.582615405405" width="33.155127081507445" height="7.459540540540536" as="geometry" />
        </mxCell>
        <mxCell id="dQi3K2ikhl7FJS8-el9H-221" value="" style="endArrow=none;html=1;rounded=0;fontStyle=1;fontFamily=Times New Roman;" parent="1" edge="1">
          <mxGeometry width="50" height="50" relative="1" as="geometry">
            <mxPoint x="634.7328746713412" y="937.7758918918915" as="sourcePoint" />
            <mxPoint x="634.3129097283085" y="958.4968378378383" as="targetPoint" />
          </mxGeometry>
        </mxCell>
        <mxCell id="dQi3K2ikhl7FJS8-el9H-222" value="" style="endArrow=none;html=1;rounded=0;fontStyle=1;fontFamily=Times New Roman;" parent="1" edge="1">
          <mxGeometry width="50" height="50" relative="1" as="geometry">
            <mxPoint x="634.3129097283085" y="990.8215135135133" as="sourcePoint" />
            <mxPoint x="656.4163277826468" y="990.8215135135133" as="targetPoint" />
          </mxGeometry>
        </mxCell>
        <mxCell id="dQi3K2ikhl7FJS8-el9H-223" value="" style="endArrow=none;html=1;rounded=0;fontStyle=1;fontFamily=Times New Roman;" parent="1" edge="1">
          <mxGeometry width="50" height="50" relative="1" as="geometry">
            <mxPoint x="612.2094916739703" y="980.7842872972974" as="sourcePoint" />
            <mxPoint x="634.3129097283085" y="980.6185197297298" as="targetPoint" />
          </mxGeometry>
        </mxCell>
        <mxCell id="dQi3K2ikhl7FJS8-el9H-224" value="" style="endArrow=none;html=1;rounded=0;fontStyle=1;fontFamily=Times New Roman;" parent="1" edge="1">
          <mxGeometry width="50" height="50" relative="1" as="geometry">
            <mxPoint x="634.7328746713412" y="969.8436278378381" as="sourcePoint" />
            <mxPoint x="634.3129097283085" y="990.5645737837838" as="targetPoint" />
          </mxGeometry>
        </mxCell>
        <mxCell id="dQi3K2ikhl7FJS8-el9H-225" value="" style="endArrow=none;html=1;rounded=0;fontStyle=1;fontFamily=Times New Roman;" parent="1" edge="1">
          <mxGeometry width="50" height="50" relative="1" as="geometry">
            <mxPoint x="580.1595354951797" y="954.6344535135133" as="sourcePoint" />
            <mxPoint x="602.2629535495181" y="954.800221081081" as="targetPoint" />
          </mxGeometry>
        </mxCell>
        <mxCell id="dQi3K2ikhl7FJS8-el9H-226" value="" style="endArrow=none;html=1;rounded=0;fontStyle=1;fontFamily=Times New Roman;" parent="1" edge="1">
          <mxGeometry width="50" height="50" relative="1" as="geometry">
            <mxPoint x="580.1595354951797" y="975.355399459459" as="sourcePoint" />
            <mxPoint x="602.2629535495181" y="975.355399459459" as="targetPoint" />
          </mxGeometry>
        </mxCell>
        <mxCell id="dQi3K2ikhl7FJS8-el9H-227" value="" style="endArrow=none;html=1;rounded=0;fontStyle=1;fontFamily=Times New Roman;" parent="1" edge="1">
          <mxGeometry width="50" height="50" relative="1" as="geometry">
            <mxPoint x="540.3733829973708" y="965.3181732432431" as="sourcePoint" />
            <mxPoint x="580.1595354951797" y="965.1524056756755" as="targetPoint" />
          </mxGeometry>
        </mxCell>
        <mxCell id="dQi3K2ikhl7FJS8-el9H-228" value="" style="endArrow=none;html=1;rounded=0;fontStyle=1;fontFamily=Times New Roman;" parent="1" edge="1">
          <mxGeometry width="50" height="50" relative="1" as="geometry">
            <mxPoint x="580.5795004382122" y="954.3775137837838" as="sourcePoint" />
            <mxPoint x="580.1595354951797" y="975.0984597297295" as="targetPoint" />
          </mxGeometry>
        </mxCell>
        <mxCell id="dQi3K2ikhl7FJS8-el9H-229" value="&lt;font style=&quot;font-size: 13px;&quot;&gt;Shard 1&lt;/font&gt;" style="text;html=1;strokeColor=none;fillColor=none;align=center;verticalAlign=middle;whiteSpace=wrap;rounded=0;fontSize=16;fontStyle=1;fontFamily=Times New Roman;" parent="1" vertex="1">
          <mxGeometry x="562.476801051709" y="925.600264054054" width="66.31025416301489" height="18.234432432432424" as="geometry" />
        </mxCell>
        <mxCell id="dQi3K2ikhl7FJS8-el9H-230" value="" style="rounded=1;whiteSpace=wrap;html=1;arcSize=22;fontStyle=1;fontFamily=Times New Roman;" parent="1" vertex="1">
          <mxGeometry x="562.476801051709" y="1033.921081081081" width="175.16958808063103" height="18.234432432432424" as="geometry" />
        </mxCell>
        <mxCell id="dQi3K2ikhl7FJS8-el9H-231" value="&lt;font style=&quot;font-size: 13px;&quot;&gt;Shard K-1&lt;/font&gt;" style="text;html=1;strokeColor=none;fillColor=none;align=center;verticalAlign=middle;whiteSpace=wrap;rounded=0;fontSize=16;fontStyle=1;fontFamily=Times New Roman;" parent="1" vertex="1">
          <mxGeometry x="567.7263628396144" y="1033.921081081081" width="77.36196319018404" height="18.234432432432424" as="geometry" />
        </mxCell>
        <mxCell id="dQi3K2ikhl7FJS8-el9H-232" value="&lt;font style=&quot;font-size: 22px;&quot;&gt;...&lt;/font&gt;" style="text;html=1;strokeColor=none;fillColor=none;align=center;verticalAlign=middle;whiteSpace=wrap;rounded=0;rotation=90;fontStyle=1;fontFamily=Times New Roman;" parent="1" vertex="1">
          <mxGeometry x="645.0883260297984" y="1012.3712972972971" width="11.328001752848378" height="12.432567567567563" as="geometry" />
        </mxCell>
        <mxCell id="dQi3K2ikhl7FJS8-el9H-238" value="&lt;font style=&quot;font-size: 22px;&quot;&gt;...&lt;/font&gt;" style="text;html=1;strokeColor=none;fillColor=none;align=center;verticalAlign=middle;whiteSpace=wrap;rounded=0;rotation=90;fontStyle=1;fontFamily=Times New Roman;" parent="1" vertex="1">
          <mxGeometry x="492.85103418054337" y="919.5414594594595" width="33.155127081507445" height="12.432567567567563" as="geometry" />
        </mxCell>
        <mxCell id="dQi3K2ikhl7FJS8-el9H-239" value="" style="endArrow=none;html=1;rounded=0;fontStyle=1;fontFamily=Times New Roman;" parent="1" edge="1">
          <mxGeometry width="50" height="50" relative="1" as="geometry">
            <mxPoint x="518.2699649430325" y="922.8568108108105" as="sourcePoint" />
            <mxPoint x="540.3733829973708" y="923.0225783783781" as="targetPoint" />
          </mxGeometry>
        </mxCell>
        <mxCell id="dQi3K2ikhl7FJS8-el9H-244" value="" style="endArrow=none;html=1;rounded=0;fontStyle=1;fontFamily=Times New Roman;" parent="1" edge="1">
          <mxGeometry width="50" height="50" relative="1" as="geometry">
            <mxPoint x="540.3733829973708" y="882.268621891892" as="sourcePoint" />
            <mxPoint x="540.3733829973708" y="965.3181732432431" as="targetPoint" />
          </mxGeometry>
        </mxCell>
        <mxCell id="dQi3K2ikhl7FJS8-el9H-246" value="&lt;font style=&quot;font-size: 22px;&quot;&gt;...&lt;/font&gt;" style="text;html=1;strokeColor=none;fillColor=none;align=center;verticalAlign=middle;whiteSpace=wrap;rounded=0;rotation=90;fontStyle=1;fontFamily=Times New Roman;" parent="1" vertex="1">
          <mxGeometry x="492.85103418054337" y="999.9387297297296" width="33.155127081507445" height="12.432567567567563" as="geometry" />
        </mxCell>
        <mxCell id="dQi3K2ikhl7FJS8-el9H-247" value="" style="endArrow=none;html=1;rounded=0;fontStyle=1;fontFamily=Times New Roman;" parent="1" edge="1">
          <mxGeometry width="50" height="50" relative="1" as="geometry">
            <mxPoint x="540.3733829973708" y="1042.9968554054055" as="sourcePoint" />
            <mxPoint x="562.476801051709" y="1042.8310878378381" as="targetPoint" />
          </mxGeometry>
        </mxCell>
        <mxCell id="dQi3K2ikhl7FJS8-el9H-248" value="" style="endArrow=none;html=1;rounded=0;fontStyle=1;fontFamily=Times New Roman;" parent="1" edge="1">
          <mxGeometry width="50" height="50" relative="1" as="geometry">
            <mxPoint x="540.3733829973708" y="1009.0559459459455" as="sourcePoint" />
            <mxPoint x="540.3733829973708" y="1043.4610045945942" as="targetPoint" />
          </mxGeometry>
        </mxCell>
        <mxCell id="dQi3K2ikhl7FJS8-el9H-249" value="" style="endArrow=none;html=1;rounded=0;fontStyle=1;fontFamily=Times New Roman;" parent="1" edge="1">
          <mxGeometry width="50" height="50" relative="1" as="geometry">
            <mxPoint x="518.2699649430325" y="1024.8038648648644" as="sourcePoint" />
            <mxPoint x="540.3733829973708" y="1024.969632432432" as="targetPoint" />
          </mxGeometry>
        </mxCell>
        <mxCell id="dQi3K2ikhl7FJS8-el9H-250" value="" style="endArrow=none;html=1;rounded=0;fontStyle=1;fontFamily=Times New Roman;" parent="1" edge="1">
          <mxGeometry width="50" height="50" relative="1" as="geometry">
            <mxPoint x="459.6959070990359" y="940.7265545945947" as="sourcePoint" />
            <mxPoint x="481.7993251533742" y="940.8923221621621" as="targetPoint" />
          </mxGeometry>
        </mxCell>
        <mxCell id="dQi3K2ikhl7FJS8-el9H-251" value="" style="endArrow=none;html=1;rounded=0;fontStyle=1;fontFamily=Times New Roman;" parent="1" edge="1">
          <mxGeometry width="50" height="50" relative="1" as="geometry">
            <mxPoint x="459.6959070990359" y="985.4837978378378" as="sourcePoint" />
            <mxPoint x="481.7993251533742" y="985.4837978378378" as="targetPoint" />
          </mxGeometry>
        </mxCell>
        <mxCell id="dQi3K2ikhl7FJS8-el9H-252" value="" style="endArrow=none;html=1;rounded=0;fontStyle=1;fontFamily=Times New Roman;" parent="1" edge="1">
          <mxGeometry width="50" height="50" relative="1" as="geometry">
            <mxPoint x="459.2538387379491" y="940.7265545945947" as="sourcePoint" />
            <mxPoint x="459.2538387379491" y="985.4837978378378" as="targetPoint" />
          </mxGeometry>
        </mxCell>
        <mxCell id="dQi3K2ikhl7FJS8-el9H-253" value="" style="endArrow=none;html=1;rounded=0;exitX=0;exitY=0.572;exitDx=0;exitDy=0;exitPerimeter=0;fontStyle=1;fontFamily=Times New Roman;" parent="1" source="dQi3K2ikhl7FJS8-el9H-132" edge="1">
          <mxGeometry width="50" height="50" relative="1" as="geometry">
            <mxPoint x="437.59248904469763" y="963.1051762162163" as="sourcePoint" />
            <mxPoint x="459.6959070990359" y="962.9394086486489" as="targetPoint" />
          </mxGeometry>
        </mxCell>
        <mxCell id="dQi3K2ikhl7FJS8-el9H-267" value="" style="rounded=1;whiteSpace=wrap;html=1;arcSize=2;fillColor=#f8cecc;strokeColor=#b85450;container=0;fontStyle=1;fontFamily=Times New Roman;" parent="1" vertex="1">
          <mxGeometry x="429.8562927256792" y="1193.3580881344303" width="313.86853637160385" height="260.79191186556966" as="geometry" />
        </mxCell>
        <mxCell id="dQi3K2ikhl7FJS8-el9H-269" value="Recv States Tree" style="text;html=1;strokeColor=none;fillColor=none;align=center;verticalAlign=middle;whiteSpace=wrap;rounded=0;fontSize=16;container=0;fontStyle=1;fontFamily=Times New Roman;" parent="1" vertex="1">
          <mxGeometry x="429.58" y="1192.53" width="130.25" height="24.87" as="geometry" />
        </mxCell>
        <mxCell id="dQi3K2ikhl7FJS8-el9H-286" value="" style="rounded=1;whiteSpace=wrap;html=1;arcSize=2;container=0;fontStyle=1;fontFamily=Times New Roman;" parent="1" vertex="1">
          <mxGeometry x="485.11483786152496" y="1217.3973563643815" width="252.53155127081507" height="153.33639413747557" as="geometry" />
        </mxCell>
        <mxCell id="dQi3K2ikhl7FJS8-el9H-287" value="&lt;font style=&quot;font-size: 12px;&quot;&gt;State #0,1&lt;/font&gt;" style="rounded=0;whiteSpace=wrap;html=1;fontSize=15;container=0;fontStyle=1;fontFamily=Times New Roman;" parent="1" vertex="1">
          <mxGeometry x="656.4163277826468" y="1219.8838924855297" width="77.36196319018404" height="16.57690747432168" as="geometry" />
        </mxCell>
        <mxCell id="dQi3K2ikhl7FJS8-el9H-288" value="&lt;font style=&quot;font-size: 12px;&quot;&gt;State #0,2&lt;/font&gt;" style="rounded=0;whiteSpace=wrap;html=1;fontSize=15;container=0;fontStyle=1;fontFamily=Times New Roman;" parent="1" vertex="1">
          <mxGeometry x="656.4163277826468" y="1240.0331235205676" width="77.36196319018404" height="16.57690747432168" as="geometry" />
        </mxCell>
        <mxCell id="dQi3K2ikhl7FJS8-el9H-289" value="&lt;font style=&quot;font-size: 22px;&quot;&gt;...&lt;/font&gt;" style="text;html=1;strokeColor=none;fillColor=none;align=center;verticalAlign=middle;whiteSpace=wrap;rounded=0;rotation=90;container=0;fontStyle=1;fontFamily=Times New Roman;" parent="1" vertex="1">
          <mxGeometry x="691.0965907099036" y="1259.41152835805" width="11.328001752848378" height="12.432680605741263" as="geometry" />
        </mxCell>
        <mxCell id="dQi3K2ikhl7FJS8-el9H-290" value="&lt;font style=&quot;font-size: 12px;&quot;&gt;State #0,Q&lt;sub&gt;0&lt;/sub&gt;&lt;/font&gt;" style="rounded=0;whiteSpace=wrap;html=1;fontSize=15;container=0;fontStyle=1;fontFamily=Times New Roman;" parent="1" vertex="1">
          <mxGeometry x="656.4163277826468" y="1272.9797271257821" width="77.36196319018404" height="16.57690747432168" as="geometry" />
        </mxCell>
        <mxCell id="dQi3K2ikhl7FJS8-el9H-291" value="" style="endArrow=none;html=1;rounded=0;fontStyle=1;fontFamily=Times New Roman;" parent="1" edge="1">
          <mxGeometry width="50" height="50" relative="1" as="geometry">
            <mxPoint x="634.3129097283085" y="1227.6004429148265" as="sourcePoint" />
            <mxPoint x="656.4163277826468" y="1227.7662119895697" as="targetPoint" />
          </mxGeometry>
        </mxCell>
        <mxCell id="dQi3K2ikhl7FJS8-el9H-292" value="" style="endArrow=none;html=1;rounded=0;fontStyle=1;fontFamily=Times New Roman;" parent="1" edge="1">
          <mxGeometry width="50" height="50" relative="1" as="geometry">
            <mxPoint x="634.3129097283085" y="1248.3215772577284" as="sourcePoint" />
            <mxPoint x="656.4163277826468" y="1248.3215772577284" as="targetPoint" />
          </mxGeometry>
        </mxCell>
        <mxCell id="dQi3K2ikhl7FJS8-el9H-293" value="" style="endArrow=none;html=1;rounded=0;fontStyle=1;fontFamily=Times New Roman;" parent="1" edge="1">
          <mxGeometry width="50" height="50" relative="1" as="geometry">
            <mxPoint x="612.2094916739703" y="1238.2842597820268" as="sourcePoint" />
            <mxPoint x="634.3129097283085" y="1238.1184907072836" as="targetPoint" />
          </mxGeometry>
        </mxCell>
        <mxCell id="dQi3K2ikhl7FJS8-el9H-294" value="&lt;font style=&quot;font-size: 22px;&quot;&gt;...&lt;/font&gt;" style="text;html=1;strokeColor=none;fillColor=none;align=center;verticalAlign=middle;whiteSpace=wrap;rounded=0;rotation=90;container=0;fontStyle=1;fontFamily=Times New Roman;" parent="1" vertex="1">
          <mxGeometry x="600.0526117440842" y="1249.1504226314446" width="33.155127081507445" height="7.459608363444756" as="geometry" />
        </mxCell>
        <mxCell id="dQi3K2ikhl7FJS8-el9H-295" value="" style="endArrow=none;html=1;rounded=0;fontStyle=1;fontFamily=Times New Roman;" parent="1" edge="1">
          <mxGeometry width="50" height="50" relative="1" as="geometry">
            <mxPoint x="634.732874671341" y="1227.3435008489744" as="sourcePoint" />
            <mxPoint x="634.3129097283085" y="1248.0646351918763" as="targetPoint" />
          </mxGeometry>
        </mxCell>
        <mxCell id="dQi3K2ikhl7FJS8-el9H-296" value="" style="endArrow=none;html=1;rounded=0;fontStyle=1;fontFamily=Times New Roman;" parent="1" edge="1">
          <mxGeometry width="50" height="50" relative="1" as="geometry">
            <mxPoint x="634.3129097283085" y="1280.3896047668038" as="sourcePoint" />
            <mxPoint x="656.4163277826468" y="1280.3896047668038" as="targetPoint" />
          </mxGeometry>
        </mxCell>
        <mxCell id="dQi3K2ikhl7FJS8-el9H-297" value="" style="endArrow=none;html=1;rounded=0;fontStyle=1;fontFamily=Times New Roman;" parent="1" edge="1">
          <mxGeometry width="50" height="50" relative="1" as="geometry">
            <mxPoint x="612.2094916739703" y="1270.3522872911024" as="sourcePoint" />
            <mxPoint x="634.3129097283085" y="1270.1865182163592" as="targetPoint" />
          </mxGeometry>
        </mxCell>
        <mxCell id="dQi3K2ikhl7FJS8-el9H-298" value="" style="endArrow=none;html=1;rounded=0;fontStyle=1;fontFamily=Times New Roman;" parent="1" edge="1">
          <mxGeometry width="50" height="50" relative="1" as="geometry">
            <mxPoint x="634.732874671341" y="1259.41152835805" as="sourcePoint" />
            <mxPoint x="634.3129097283085" y="1280.132662700952" as="targetPoint" />
          </mxGeometry>
        </mxCell>
        <mxCell id="dQi3K2ikhl7FJS8-el9H-299" value="" style="endArrow=none;html=1;rounded=0;fontStyle=1;fontFamily=Times New Roman;" parent="1" edge="1">
          <mxGeometry width="50" height="50" relative="1" as="geometry">
            <mxPoint x="579.0543645924628" y="1244.2022157503595" as="sourcePoint" />
            <mxPoint x="601.1577826468011" y="1244.3679848251027" as="targetPoint" />
          </mxGeometry>
        </mxCell>
        <mxCell id="dQi3K2ikhl7FJS8-el9H-300" value="" style="endArrow=none;html=1;rounded=0;fontStyle=1;fontFamily=Times New Roman;" parent="1" edge="1">
          <mxGeometry width="50" height="50" relative="1" as="geometry">
            <mxPoint x="579.0543645924628" y="1264.9233500932617" as="sourcePoint" />
            <mxPoint x="601.1577826468011" y="1264.9233500932617" as="targetPoint" />
          </mxGeometry>
        </mxCell>
        <mxCell id="dQi3K2ikhl7FJS8-el9H-302" value="" style="endArrow=none;html=1;rounded=0;fontStyle=1;fontFamily=Times New Roman;" parent="1" edge="1">
          <mxGeometry width="50" height="50" relative="1" as="geometry">
            <mxPoint x="579.4743295354953" y="1243.9452736845076" as="sourcePoint" />
            <mxPoint x="579.0543645924628" y="1264.6664080274097" as="targetPoint" />
          </mxGeometry>
        </mxCell>
        <mxCell id="dQi3K2ikhl7FJS8-el9H-322" value="" style="rounded=1;whiteSpace=wrap;html=1;arcSize=22;container=0;fontStyle=1;fontFamily=Times New Roman;" parent="1" vertex="1">
          <mxGeometry x="485.11483786152496" y="1425.4375451671185" width="252.53155127081507" height="20.721134342902104" as="geometry" />
        </mxCell>
        <mxCell id="dQi3K2ikhl7FJS8-el9H-328" value="&lt;font style=&quot;font-size: 22px;&quot;&gt;...&lt;/font&gt;" style="text;html=1;strokeColor=none;fillColor=none;align=center;verticalAlign=middle;whiteSpace=wrap;rounded=0;rotation=90;container=0;fontStyle=1;fontFamily=Times New Roman;" parent="1" vertex="1">
          <mxGeometry x="449.74936897458366" y="1383.9952764813142" width="33.155127081507445" height="12.432680605741263" as="geometry" />
        </mxCell>
        <mxCell id="dQi3K2ikhl7FJS8-el9H-329" value="" style="endArrow=none;html=1;rounded=0;fontStyle=1;fontFamily=Times New Roman;" parent="1" edge="1">
          <mxGeometry width="50" height="50" relative="1" as="geometry">
            <mxPoint x="479.58898334794037" y="1434.5548442779952" as="sourcePoint" />
            <mxPoint x="485.11483786152496" y="1434.3476329345667" as="targetPoint" />
          </mxGeometry>
        </mxCell>
        <mxCell id="dQi3K2ikhl7FJS8-el9H-330" value="" style="endArrow=none;html=1;rounded=0;fontStyle=1;fontFamily=Times New Roman;" parent="1" edge="1">
          <mxGeometry width="50" height="50" relative="1" as="geometry">
            <mxPoint x="479.58898334794037" y="1404.7164108242166" as="sourcePoint" />
            <mxPoint x="479.58898334794037" y="1434.9775554185906" as="targetPoint" />
          </mxGeometry>
        </mxCell>
        <mxCell id="dQi3K2ikhl7FJS8-el9H-331" value="" style="endArrow=none;html=1;rounded=0;fontStyle=1;fontFamily=Times New Roman;" parent="1" edge="1">
          <mxGeometry width="50" height="50" relative="1" as="geometry">
            <mxPoint x="457.4855652936021" y="1416.3202460562413" as="sourcePoint" />
            <mxPoint x="479.58898334794037" y="1416.486015130985" as="targetPoint" />
          </mxGeometry>
        </mxCell>
        <mxCell id="dQi3K2ikhl7FJS8-el9H-332" value="" style="endArrow=none;html=1;rounded=0;fontStyle=1;fontFamily=Times New Roman;" parent="1" edge="1">
          <mxGeometry width="50" height="50" relative="1" as="geometry">
            <mxPoint x="480.14156879929885" y="1336.7510901794974" as="sourcePoint" />
            <mxPoint x="502.24498685363716" y="1336.9168592542408" as="targetPoint" />
          </mxGeometry>
        </mxCell>
        <mxCell id="dQi3K2ikhl7FJS8-el9H-333" value="" style="endArrow=none;html=1;rounded=0;fontStyle=1;fontFamily=Times New Roman;" parent="1" edge="1">
          <mxGeometry width="50" height="50" relative="1" as="geometry">
            <mxPoint x="479.58898334794037" y="1385.6529672287465" as="sourcePoint" />
            <mxPoint x="485.11483786152496" y="1385.5700826913749" as="targetPoint" />
          </mxGeometry>
        </mxCell>
        <mxCell id="dQi3K2ikhl7FJS8-el9H-334" value="" style="endArrow=none;html=1;rounded=0;fontStyle=1;fontFamily=Times New Roman;" parent="1" edge="1">
          <mxGeometry width="50" height="50" relative="1" as="geometry">
            <mxPoint x="479.58898334794037" y="1336.7510901794974" as="sourcePoint" />
            <mxPoint x="479.58898334794037" y="1385.6529672287465" as="targetPoint" />
          </mxGeometry>
        </mxCell>
        <mxCell id="dQi3K2ikhl7FJS8-el9H-335" value="" style="endArrow=none;html=1;rounded=0;fontStyle=1;fontFamily=Times New Roman;" parent="1" edge="1">
          <mxGeometry width="50" height="50" relative="1" as="geometry">
            <mxPoint x="459.6959070990359" y="1362.6110658394393" as="sourcePoint" />
            <mxPoint x="479.58898334794037" y="1362.4452967646962" as="targetPoint" />
          </mxGeometry>
        </mxCell>
        <mxCell id="wD-DZCwfwVYlk3r4DPER-2" value="" style="rounded=1;whiteSpace=wrap;html=1;arcSize=6;fillColor=#f8cecc;strokeColor=#b85450;container=0;fontStyle=1;fontFamily=Times New Roman;" parent="1" vertex="1">
          <mxGeometry x="429.8562927256792" y="1155" width="314.97370727432076" height="30.36639231824422" as="geometry" />
        </mxCell>
        <mxCell id="wD-DZCwfwVYlk3r4DPER-3" value="States Tree (same as Shard Block)" style="text;html=1;strokeColor=none;fillColor=none;align=center;verticalAlign=middle;whiteSpace=wrap;rounded=0;fontSize=16;container=0;fontStyle=1;fontFamily=Times New Roman;" parent="1" vertex="1">
          <mxGeometry x="429.58" y="1157.05" width="245.25" height="24.87" as="geometry" />
        </mxCell>
        <mxCell id="wD-DZCwfwVYlk3r4DPER-13" value="&lt;font style=&quot;font-size: 13px;&quot;&gt;From Shard K-1&lt;/font&gt;" style="text;html=1;strokeColor=none;fillColor=none;align=center;verticalAlign=middle;whiteSpace=wrap;rounded=0;fontSize=16;container=0;fontStyle=1;fontFamily=Times New Roman;" parent="1" vertex="1">
          <mxGeometry x="489.5355214723926" y="1425.4375451671185" width="110.5170902716915" height="18.23459822175385" as="geometry" />
        </mxCell>
        <mxCell id="wD-DZCwfwVYlk3r4DPER-18" value="" style="endArrow=none;html=1;rounded=0;fontStyle=1;fontFamily=Times New Roman;" parent="1" edge="1">
          <mxGeometry width="50" height="50" relative="1" as="geometry">
            <mxPoint x="562.476801051709" y="1253.0377074341734" as="sourcePoint" />
            <mxPoint x="579.0543645924628" y="1252.7393230996354" as="targetPoint" />
          </mxGeometry>
        </mxCell>
        <mxCell id="wD-DZCwfwVYlk3r4DPER-19" value="" style="endArrow=none;html=1;rounded=0;fontStyle=1;fontFamily=Times New Roman;" parent="1" edge="1">
          <mxGeometry width="50" height="50" relative="1" as="geometry">
            <mxPoint x="562.8967659947416" y="1253.0874381565961" as="sourcePoint" />
            <mxPoint x="562.476801051709" y="1304.42612060457" as="targetPoint" />
          </mxGeometry>
        </mxCell>
        <mxCell id="wD-DZCwfwVYlk3r4DPER-20" value="Proof #0,1" style="rounded=0;whiteSpace=wrap;html=1;fontFamily=Times New Roman;fontSize=11;strokeWidth=0.8;container=0;fontStyle=1" parent="1" vertex="1">
          <mxGeometry x="578.7780718667835" y="1295.3088214936934" width="72.1124014022787" height="16.57690747432168" as="geometry" />
        </mxCell>
        <mxCell id="wD-DZCwfwVYlk3r4DPER-21" value="" style="endArrow=none;html=1;rounded=0;fontStyle=1;fontFamily=Times New Roman;" parent="1" edge="1">
          <mxGeometry width="50" height="50" relative="1" as="geometry">
            <mxPoint x="562.476801051709" y="1303.746467398123" as="sourcePoint" />
            <mxPoint x="579.0543645924628" y="1303.448083063586" as="targetPoint" />
          </mxGeometry>
        </mxCell>
        <mxCell id="wD-DZCwfwVYlk3r4DPER-22" value="Proof #0,2" style="rounded=0;whiteSpace=wrap;html=1;fontFamily=Times New Roman;fontSize=11;strokeWidth=0.8;container=0;fontStyle=1" parent="1" vertex="1">
          <mxGeometry x="562.476801051709" y="1316.8588012103114" width="71.83610867659948" height="16.57690747432168" as="geometry" />
        </mxCell>
        <mxCell id="wD-DZCwfwVYlk3r4DPER-23" value="" style="endArrow=none;html=1;rounded=0;fontStyle=1;fontFamily=Times New Roman;" parent="1" edge="1">
          <mxGeometry width="50" height="50" relative="1" as="geometry">
            <mxPoint x="545.8992375109553" y="1279.8591437276255" as="sourcePoint" />
            <mxPoint x="562.476801051709" y="1279.560759393088" as="targetPoint" />
          </mxGeometry>
        </mxCell>
        <mxCell id="wD-DZCwfwVYlk3r4DPER-24" value="" style="endArrow=none;html=1;rounded=0;fontStyle=1;fontFamily=Times New Roman;" parent="1" edge="1">
          <mxGeometry width="50" height="50" relative="1" as="geometry">
            <mxPoint x="545.8992375109553" y="1325.2964471147407" as="sourcePoint" />
            <mxPoint x="562.476801051709" y="1324.9980627802038" as="targetPoint" />
          </mxGeometry>
        </mxCell>
        <mxCell id="wD-DZCwfwVYlk3r4DPER-25" value="" style="endArrow=none;html=1;rounded=0;fontStyle=1;fontFamily=Times New Roman;" parent="1" edge="1">
          <mxGeometry width="50" height="50" relative="1" as="geometry">
            <mxPoint x="547.0044084136722" y="1279.5607593930877" as="sourcePoint" />
            <mxPoint x="547.0044084136722" y="1325.1472549474722" as="targetPoint" />
          </mxGeometry>
        </mxCell>
        <mxCell id="wD-DZCwfwVYlk3r4DPER-26" value="" style="endArrow=none;html=1;rounded=0;fontStyle=1;fontFamily=Times New Roman;" parent="1" edge="1">
          <mxGeometry width="50" height="50" relative="1" as="geometry">
            <mxPoint x="530.4268448729185" y="1303.7464673981226" as="sourcePoint" />
            <mxPoint x="547.0044084136722" y="1303.4480830635855" as="targetPoint" />
          </mxGeometry>
        </mxCell>
        <mxCell id="wD-DZCwfwVYlk3r4DPER-27" value="&lt;font style=&quot;font-size: 22px;&quot;&gt;...&lt;/font&gt;" style="text;html=1;strokeColor=none;fillColor=none;align=center;verticalAlign=middle;whiteSpace=wrap;rounded=0;rotation=90;container=0;fontStyle=1;fontFamily=Times New Roman;" parent="1" vertex="1">
          <mxGeometry x="513.8492813321648" y="1304.42612060457" width="33.155127081507445" height="7.459608363444756" as="geometry" />
        </mxCell>
        <mxCell id="wD-DZCwfwVYlk3r4DPER-28" value="Proof #0,D&lt;sub&gt;0&lt;/sub&gt;" style="rounded=0;whiteSpace=wrap;html=1;fontFamily=Times New Roman;fontSize=11;strokeWidth=0.8;container=0;fontStyle=1" parent="1" vertex="1">
          <mxGeometry x="518.2699649430325" y="1345.8683892903746" width="78.46713409290096" height="16.57690747432168" as="geometry" />
        </mxCell>
        <mxCell id="wD-DZCwfwVYlk3r4DPER-29" value="&lt;font style=&quot;font-size: 22px;&quot;&gt;...&lt;/font&gt;" style="text;html=1;strokeColor=none;fillColor=none;align=center;verticalAlign=middle;whiteSpace=wrap;rounded=0;rotation=0;container=0;fontStyle=1;fontFamily=Times New Roman;" parent="1" vertex="1">
          <mxGeometry x="540.9259684487292" y="1330.1203271897691" width="33.155127081507445" height="7.459608363444756" as="geometry" />
        </mxCell>
        <mxCell id="wD-DZCwfwVYlk3r4DPER-30" value="" style="endArrow=none;html=1;rounded=0;fontStyle=1;fontFamily=Times New Roman;" parent="1" edge="1">
          <mxGeometry width="50" height="50" relative="1" as="geometry">
            <mxPoint x="501.13981595092025" y="1317.1571855448492" as="sourcePoint" />
            <mxPoint x="517.717379491674" y="1316.8588012103112" as="targetPoint" />
          </mxGeometry>
        </mxCell>
        <mxCell id="wD-DZCwfwVYlk3r4DPER-31" value="" style="endArrow=none;html=1;rounded=0;fontStyle=1;fontFamily=Times New Roman;" parent="1" edge="1">
          <mxGeometry width="50" height="50" relative="1" as="geometry">
            <mxPoint x="501.13981595092025" y="1354.3060351948038" as="sourcePoint" />
            <mxPoint x="517.717379491674" y="1354.0076508602663" as="targetPoint" />
          </mxGeometry>
        </mxCell>
        <mxCell id="wD-DZCwfwVYlk3r4DPER-32" value="" style="endArrow=none;html=1;rounded=0;fontStyle=1;fontFamily=Times New Roman;" parent="1" edge="1">
          <mxGeometry width="50" height="50" relative="1" as="geometry">
            <mxPoint x="501.6924014022787" y="1316.8588012103114" as="sourcePoint" />
            <mxPoint x="501.6924014022787" y="1354.1568430275352" as="targetPoint" />
          </mxGeometry>
        </mxCell>
        <mxCell id="wD-DZCwfwVYlk3r4DPER-34" value="&lt;font style=&quot;font-size: 13px;&quot;&gt;From Shard 0&lt;/font&gt;" style="text;html=1;strokeColor=none;fillColor=none;align=center;verticalAlign=middle;whiteSpace=wrap;rounded=0;fontSize=13;container=0;fontStyle=1;fontFamily=Times New Roman;" parent="1" vertex="1">
          <mxGeometry x="488.15405784399644" y="1217.3973563643815" width="91.72918492550396" height="18.23459822175385" as="geometry" />
        </mxCell>
        <mxCell id="wD-DZCwfwVYlk3r4DPER-35" value="" style="rounded=1;whiteSpace=wrap;html=1;arcSize=22;container=0;fontStyle=1;fontFamily=Times New Roman;" parent="1" vertex="1">
          <mxGeometry x="485.11483786152496" y="1374.8779773704373" width="252.53155127081507" height="21.54997971661819" as="geometry" />
        </mxCell>
        <mxCell id="wD-DZCwfwVYlk3r4DPER-36" value="&lt;font style=&quot;font-size: 13px;&quot;&gt;From Shard 1&lt;/font&gt;" style="text;html=1;strokeColor=none;fillColor=none;align=center;verticalAlign=middle;whiteSpace=wrap;rounded=0;fontSize=16;container=0;fontStyle=1;fontFamily=Times New Roman;" parent="1" vertex="1">
          <mxGeometry x="486.22000876424187" y="1374.8779773704373" width="98.36021034180543" height="18.23459822175385" as="geometry" />
        </mxCell>
        <mxCell id="wD-DZCwfwVYlk3r4DPER-37" value="&lt;font style=&quot;font-size: 22px;&quot;&gt;...&lt;/font&gt;" style="text;html=1;strokeColor=none;fillColor=none;align=center;verticalAlign=middle;whiteSpace=wrap;rounded=0;rotation=90;container=0;fontStyle=1;fontFamily=Times New Roman;" parent="1" vertex="1">
          <mxGeometry x="610.9717002629274" y="1403.8875654505005" width="11.328001752848378" height="12.432680605741263" as="geometry" />
        </mxCell>
        <mxCell id="wD-DZCwfwVYlk3r4DPER-39" value="" style="endArrow=none;html=1;rounded=0;fontStyle=1;fontFamily=Times New Roman;" parent="1" edge="1">
          <mxGeometry width="50" height="50" relative="1" as="geometry">
            <mxPoint x="429.8562927256792" y="1392.2837302184753" as="sourcePoint" />
            <mxPoint x="440.90800175284835" y="1392.2837302184753" as="targetPoint" />
          </mxGeometry>
        </mxCell>
        <mxCell id="wD-DZCwfwVYlk3r4DPER-40" value="" style="endArrow=none;html=1;rounded=0;fontStyle=1;fontFamily=Times New Roman;" parent="1" edge="1">
          <mxGeometry width="50" height="50" relative="1" as="geometry">
            <mxPoint x="440.90800175284835" y="1372.391441249289" as="sourcePoint" />
            <mxPoint x="440.90800175284835" y="1410.518328440229" as="targetPoint" />
          </mxGeometry>
        </mxCell>
        <mxCell id="wD-DZCwfwVYlk3r4DPER-41" value="" style="endArrow=none;html=1;rounded=0;fontStyle=1;fontFamily=Times New Roman;" parent="1" edge="1">
          <mxGeometry width="50" height="50" relative="1" as="geometry">
            <mxPoint x="440.90800175284835" y="1372.4743257866603" as="sourcePoint" />
            <mxPoint x="446.43385626643294" y="1372.3914412492888" as="targetPoint" />
          </mxGeometry>
        </mxCell>
        <mxCell id="wD-DZCwfwVYlk3r4DPER-42" value="" style="endArrow=none;html=1;rounded=0;fontStyle=1;fontFamily=Times New Roman;" parent="1" edge="1">
          <mxGeometry width="50" height="50" relative="1" as="geometry">
            <mxPoint x="440.90800175284835" y="1372.4743257866603" as="sourcePoint" />
            <mxPoint x="446.43385626643294" y="1372.3914412492888" as="targetPoint" />
          </mxGeometry>
        </mxCell>
        <mxCell id="wD-DZCwfwVYlk3r4DPER-43" value="" style="endArrow=none;html=1;rounded=0;fontStyle=1;fontFamily=Times New Roman;" parent="1" edge="1">
          <mxGeometry width="50" height="50" relative="1" as="geometry">
            <mxPoint x="440.90800175284835" y="1410.6012129776004" as="sourcePoint" />
            <mxPoint x="446.43385626643294" y="1410.5183284402285" as="targetPoint" />
          </mxGeometry>
        </mxCell>
        <mxCell id="IV_0hg_yE6tqdmuyUOx4-13" value="Block Header" style="text;html=1;strokeColor=none;fillColor=none;align=center;verticalAlign=middle;whiteSpace=wrap;rounded=0;fontSize=16;container=0;fontStyle=1;fontFamily=Times New Roman;" vertex="1" parent="1">
          <mxGeometry x="315.16" y="233.64" width="97" height="14.87" as="geometry" />
        </mxCell>
        <mxCell id="IV_0hg_yE6tqdmuyUOx4-15" value="" style="rounded=1;whiteSpace=wrap;html=1;arcSize=6;fillColor=#d5e8d4;strokeColor=#82b366;container=0;fontStyle=1;fontFamily=Times New Roman;" vertex="1" parent="1">
          <mxGeometry x="430.25" y="525" width="309.75" height="30.37" as="geometry" />
        </mxCell>
        <mxCell id="IV_0hg_yE6tqdmuyUOx4-16" value="States Tree (same as Shard Block)" style="text;html=1;strokeColor=none;fillColor=none;align=center;verticalAlign=middle;whiteSpace=wrap;rounded=0;fontSize=16;container=0;fontStyle=1;fontFamily=Times New Roman;" vertex="1" parent="1">
          <mxGeometry x="429.97" y="527.05" width="245.25" height="24.87" as="geometry" />
        </mxCell>
        <mxCell id="IV_0hg_yE6tqdmuyUOx4-17" value="Block Header" style="text;html=1;strokeColor=none;fillColor=none;align=center;verticalAlign=middle;whiteSpace=wrap;rounded=0;fontSize=16;container=0;fontStyle=1;fontFamily=Times New Roman;" vertex="1" parent="1">
          <mxGeometry x="315.16" y="531.92" width="97" height="14.87" as="geometry" />
        </mxCell>
        <mxCell id="IV_0hg_yE6tqdmuyUOx4-18" value="" style="endArrow=classic;html=1;rounded=0;entryX=1;entryY=0.5;entryDx=0;entryDy=0;fontStyle=1;fontFamily=Times New Roman;exitX=0;exitY=0.5;exitDx=0;exitDy=0;" edge="1" parent="1" source="IV_0hg_yE6tqdmuyUOx4-16" target="dQi3K2ikhl7FJS8-el9H-27">
          <mxGeometry width="50" height="50" relative="1" as="geometry">
            <mxPoint x="435" y="725" as="sourcePoint" />
            <mxPoint x="414" y="724" as="targetPoint" />
            <Array as="points">
              <mxPoint x="420" y="539" />
              <mxPoint x="420" y="671" />
            </Array>
          </mxGeometry>
        </mxCell>
        <mxCell id="IV_0hg_yE6tqdmuyUOx4-19" value="Block Header" style="text;html=1;strokeColor=none;fillColor=none;align=center;verticalAlign=middle;whiteSpace=wrap;rounded=0;fontSize=16;container=0;fontStyle=1;fontFamily=Times New Roman;" vertex="1" parent="1">
          <mxGeometry x="315.16" y="840" width="97" height="14.87" as="geometry" />
        </mxCell>
        <mxCell id="IV_0hg_yE6tqdmuyUOx4-20" value="Block Header" style="text;html=1;strokeColor=none;fillColor=none;align=center;verticalAlign=middle;whiteSpace=wrap;rounded=0;fontSize=16;container=0;fontStyle=1;fontFamily=Times New Roman;" vertex="1" parent="1">
          <mxGeometry x="315.33000000000004" y="1160.75" width="97" height="14.87" as="geometry" />
        </mxCell>
      </root>
    </mxGraphModel>
  </diagram>
</mxfile>
